<?xml version="1.0" encoding="UTF-8" standalone="no"?>
<!DOCTYPE svg PUBLIC "-//W3C//DTD SVG 1.1//EN"
 "http://www.w3.org/Graphics/SVG/1.1/DTD/svg11.dtd">
<!-- Generated by graphviz version 12.2.1 (20241206.2353)
 -->
<!-- Title: AWS AI/ML Application Architecture
This architecture uses S3 for data storage, SageMaker for model training/inference, EKS for scalable app serving, and integrates security, monitoring, and queueing for a robust AI pipeline. Pages: 1 -->
<svg width="1940pt" height="1908pt"
 viewBox="0.00 0.00 1939.75 1907.55" xmlns="http://www.w3.org/2000/svg" xmlns:xlink="http://www.w3.org/1999/xlink">
<g id="graph0" class="graph" transform="scale(1 1) rotate(0) translate(144 1763.55)">
<title>AWS AI/ML Application Architecture
This architecture uses S3 for data storage, SageMaker for model training/inference, EKS for scalable app serving, and integrates security, monitoring, and queueing for a robust AI pipeline.</title>
<polygon fill="white" stroke="none" points="-144,144 -144,-1763.55 1795.75,-1763.55 1795.75,144 -144,144"/>
<text text-anchor="middle" x="825.88" y="-21.25" font-family="Sans-Serif" font-size="15.00" fill="#2d3436">AWS AI/ML Application Architecture</text>
<text text-anchor="middle" x="825.88" y="-5.5" font-family="Sans-Serif" font-size="15.00" fill="#2d3436">This architecture uses S3 for data storage, SageMaker for model training/inference, EKS for scalable app serving, and integrates security, monitoring, and queueing for a robust AI pipeline.</text>
<g id="clust1" class="cluster">
<title>cluster_VPC</title>
<path fill="#e5f5fd" stroke="#aeb6be" d="M20,-250.55C20,-250.55 415,-250.55 415,-250.55 421,-250.55 427,-256.55 427,-262.55 427,-262.55 427,-1434.75 427,-1434.75 427,-1440.75 421,-1446.75 415,-1446.75 415,-1446.75 20,-1446.75 20,-1446.75 14,-1446.75 8,-1440.75 8,-1434.75 8,-1434.75 8,-262.55 8,-262.55 8,-256.55 14,-250.55 20,-250.55"/>
<text text-anchor="middle" x="28.75" y="-1431.35" font-family="Sans-Serif" font-size="12.00" fill="#2d3436">VPC</text>
</g>
<g id="clust2" class="cluster">
<title>cluster_Public Subnet</title>
<path fill="#ebf3e7" stroke="#aeb6be" d="M35,-1244.45C35,-1244.45 127,-1244.45 127,-1244.45 133,-1244.45 139,-1250.45 139,-1256.45 139,-1256.45 139,-1406 139,-1406 139,-1412 133,-1418 127,-1418 127,-1418 35,-1418 35,-1418 29,-1418 23,-1412 23,-1406 23,-1406 23,-1256.45 23,-1256.45 23,-1250.45 29,-1244.45 35,-1244.45"/>
<text text-anchor="middle" x="68.5" y="-1402.6" font-family="Sans-Serif" font-size="12.00" fill="#2d3436">Public Subnet</text>
</g>
<g id="clust3" class="cluster">
<title>cluster_Private Subnet</title>
<path fill="#ebf3e7" stroke="#aeb6be" d="M28,-258.55C28,-258.55 407,-258.55 407,-258.55 413,-258.55 419,-264.55 419,-270.55 419,-270.55 419,-1204.45 419,-1204.45 419,-1210.45 413,-1216.45 407,-1216.45 407,-1216.45 28,-1216.45 28,-1216.45 22,-1216.45 16,-1210.45 16,-1204.45 16,-1204.45 16,-270.55 16,-270.55 16,-264.55 22,-258.55 28,-258.55"/>
<text text-anchor="middle" x="63.38" y="-1201.05" font-family="Sans-Serif" font-size="12.00" fill="#2d3436">Private Subnet</text>
</g>
<g id="clust4" class="cluster">
<title>cluster_App Layer</title>
<path fill="#ece8f6" stroke="#aeb6be" d="M129,-766.65C129,-766.65 221,-766.65 221,-766.65 227,-766.65 233,-772.65 233,-778.65 233,-778.65 233,-1175.7 233,-1175.7 233,-1181.7 227,-1187.7 221,-1187.7 221,-1187.7 129,-1187.7 129,-1187.7 123,-1187.7 117,-1181.7 117,-1175.7 117,-1175.7 117,-778.65 117,-778.65 117,-772.65 123,-766.65 129,-766.65"/>
<text text-anchor="middle" x="152.38" y="-1172.3" font-family="Sans-Serif" font-size="12.00" fill="#2d3436">App Layer</text>
</g>
<g id="clust5" class="cluster">
<title>cluster_ML Services</title>
<path fill="#ece8f6" stroke="#aeb6be" d="M163,-509.4C163,-509.4 399,-509.4 399,-509.4 405,-509.4 411,-515.4 411,-521.4 411,-521.4 411,-699.75 411,-699.75 411,-705.75 405,-711.75 399,-711.75 399,-711.75 163,-711.75 163,-711.75 157,-711.75 151,-705.75 151,-699.75 151,-699.75 151,-521.4 151,-521.4 151,-515.4 157,-509.4 163,-509.4"/>
<text text-anchor="middle" x="192" y="-696.35" font-family="Sans-Serif" font-size="12.00" fill="#2d3436">ML Services</text>
</g>
<g id="clust6" class="cluster">
<title>cluster_Data Layer</title>
<path fill="#ece8f6" stroke="#aeb6be" d="M36,-266.55C36,-266.55 272,-266.55 272,-266.55 278,-266.55 284,-272.55 284,-278.55 284,-278.55 284,-456.9 284,-456.9 284,-462.9 278,-468.9 272,-468.9 272,-468.9 36,-468.9 36,-468.9 30,-468.9 24,-462.9 24,-456.9 24,-456.9 24,-278.55 24,-278.55 24,-272.55 30,-266.55 36,-266.55"/>
<text text-anchor="middle" x="61.25" y="-453.5" font-family="Sans-Serif" font-size="12.00" fill="#2d3436">Data Layer</text>
</g>
<g id="clust7" class="cluster">
<title>cluster_Security &amp; Monitoring</title>
<path fill="#e5f5fd" stroke="#aeb6be" d="M567,-47.5C567,-47.5 947,-47.5 947,-47.5 953,-47.5 959,-53.5 959,-59.5 959,-59.5 959,-209.05 959,-209.05 959,-215.05 953,-221.05 947,-221.05 947,-221.05 567,-221.05 567,-221.05 561,-221.05 555,-215.05 555,-209.05 555,-209.05 555,-59.5 555,-59.5 555,-53.5 561,-47.5 567,-47.5"/>
<text text-anchor="middle" x="620" y="-205.65" font-family="Sans-Serif" font-size="12.00" fill="#2d3436">Security &amp; Monitoring</text>
</g>
<!-- 3a59059508944cf8b1eb66cc2c534f63 -->
<g id="node1" class="node">
<title>3a59059508944cf8b1eb66cc2c534f63</title>
<image xlink:href="/Users/hamadkhawaja/Developer/diagram-ai/.venv/lib/python3.13/site-packages/resources/aws/network/route-53.png" width="100.8px" height="100.8px" preserveAspectRatio="xMinYMin meet" x="30.6" y="-1601.55"/>
<text text-anchor="middle" x="81" y="-1483.9" font-family="Sans-Serif" font-size="13.00" fill="#2d3436">Route 53</text>
</g>
<!-- 7afa203b7d31402d8dc437315a0606af -->
<g id="node4" class="node">
<title>7afa203b7d31402d8dc437315a0606af</title>
<image xlink:href="/Users/hamadkhawaja/Developer/diagram-ai/.venv/lib/python3.13/site-packages/resources/aws/network/elb-application-load-balancer.png" width="100.8px" height="100.8px" preserveAspectRatio="xMinYMin meet" x="30.6" y="-1371.25"/>
<text text-anchor="middle" x="81" y="-1253.6" font-family="Sans-Serif" font-size="13.00" fill="#2d3436">App Load Balancer</text>
</g>
<!-- 3a59059508944cf8b1eb66cc2c534f63&#45;&gt;7afa203b7d31402d8dc437315a0606af -->
<g id="edge1" class="edge">
<title>3a59059508944cf8b1eb66cc2c534f63&#45;&gt;7afa203b7d31402d8dc437315a0606af</title>
<path fill="none" stroke="#7b8894" d="M81,-1482.99C81,-1482.99 81,-1400.75 81,-1400.75"/>
<polygon fill="#7b8894" stroke="#7b8894" points="84.5,-1400.75 81,-1390.75 77.5,-1400.75 84.5,-1400.75"/>
</g>
<!-- 2f6965133c0c470bb3a1382ee5be53a8 -->
<g id="node2" class="node">
<title>2f6965133c0c470bb3a1382ee5be53a8</title>
<image xlink:href="/Users/hamadkhawaja/Developer/diagram-ai/.venv/lib/python3.13/site-packages/resources/aws/network/internet-gateway.png" width="100.8px" height="100.8px" preserveAspectRatio="xMinYMin meet" x="174.6" y="-1371.25"/>
<text text-anchor="middle" x="225" y="-1253.6" font-family="Sans-Serif" font-size="13.00" fill="#2d3436">Internet Gateway</text>
</g>
<!-- 0a04acbaf6a9458c99c88e71393ffbff -->
<g id="node3" class="node">
<title>0a04acbaf6a9458c99c88e71393ffbff</title>
<image xlink:href="/Users/hamadkhawaja/Developer/diagram-ai/.venv/lib/python3.13/site-packages/resources/aws/network/nat-gateway.png" width="100.8px" height="100.8px" preserveAspectRatio="xMinYMin meet" x="318.6" y="-1371.25"/>
<text text-anchor="middle" x="369" y="-1253.6" font-family="Sans-Serif" font-size="13.00" fill="#2d3436">NAT Gateway</text>
</g>
<!-- 69693725c7cd413aad97c965d1451a95 -->
<g id="node5" class="node">
<title>69693725c7cd413aad97c965d1451a95</title>
<image xlink:href="/Users/hamadkhawaja/Developer/diagram-ai/.venv/lib/python3.13/site-packages/resources/aws/compute/elastic-kubernetes-service.png" width="100.8px" height="100.8px" preserveAspectRatio="xMinYMin meet" x="124.6" y="-1126.55"/>
<text text-anchor="middle" x="175" y="-1008" font-family="Sans-Serif" font-size="13.00" fill="#2d3436">EKS</text>
<text text-anchor="middle" x="175" y="-994.5" font-family="Sans-Serif" font-size="13.00" fill="#2d3436">Model API</text>
</g>
<!-- 7afa203b7d31402d8dc437315a0606af&#45;&gt;69693725c7cd413aad97c965d1451a95 -->
<g id="edge2" class="edge">
<title>7afa203b7d31402d8dc437315a0606af&#45;&gt;69693725c7cd413aad97c965d1451a95</title>
<path fill="none" stroke="#7b8894" d="M131.4,-1320.5C143.5,-1320.5 153,-1320.5 153,-1320.5 153,-1320.5 153,-1170.39 153,-1170.39"/>
<polygon fill="#7b8894" stroke="#7b8894" points="156.5,-1170.39 153,-1160.39 149.5,-1170.39 156.5,-1170.39"/>
</g>
<!-- 87699cae13ba45ed8dfa71674e53708b -->
<g id="node6" class="node">
<title>87699cae13ba45ed8dfa71674e53708b</title>
<image xlink:href="/Users/hamadkhawaja/Developer/diagram-ai/.venv/lib/python3.13/site-packages/resources/aws/compute/lambda.png" width="100.8px" height="100.8px" preserveAspectRatio="xMinYMin meet" x="124.6" y="-893.45"/>
<text text-anchor="middle" x="175" y="-775.8" font-family="Sans-Serif" font-size="13.00" fill="#2d3436">Pre/Post Processing</text>
</g>
<!-- 69693725c7cd413aad97c965d1451a95&#45;&gt;87699cae13ba45ed8dfa71674e53708b -->
<g id="edge3" class="edge">
<title>69693725c7cd413aad97c965d1451a95&#45;&gt;87699cae13ba45ed8dfa71674e53708b</title>
<path fill="none" stroke="#7b8894" d="M158.2,-993.64C158.2,-993.64 158.2,-922.73 158.2,-922.73"/>
<polygon fill="#7b8894" stroke="#7b8894" points="161.7,-922.73 158.2,-912.73 154.7,-922.73 161.7,-922.73"/>
</g>
<!-- 8e08d41985ce4c60a3bf2282d1bda864 -->
<g id="node9" class="node">
<title>8e08d41985ce4c60a3bf2282d1bda864</title>
<image xlink:href="/Users/hamadkhawaja/Developer/diagram-ai/.venv/lib/python3.13/site-packages/resources/aws/storage/simple-storage-service-s3.png" width="100.8px" height="100.8px" preserveAspectRatio="xMinYMin meet" x="175.6" y="-407.75"/>
<text text-anchor="middle" x="226" y="-289.2" font-family="Sans-Serif" font-size="13.00" fill="#2d3436">S3</text>
<text text-anchor="middle" x="226" y="-275.7" font-family="Sans-Serif" font-size="13.00" fill="#2d3436">Data Lake</text>
</g>
<!-- 69693725c7cd413aad97c965d1451a95&#45;&gt;8e08d41985ce4c60a3bf2282d1bda864 -->
<g id="edge8" class="edge">
<title>69693725c7cd413aad97c965d1451a95&#45;&gt;8e08d41985ce4c60a3bf2282d1bda864</title>
<path fill="none" stroke="#7b8894" d="M225.37,-1026.5C245.83,-1026.5 264.73,-1026.5 264.73,-1026.5 264.73,-1026.5 264.73,-451.59 264.73,-451.59"/>
<polygon fill="#7b8894" stroke="#7b8894" points="268.23,-451.59 264.73,-441.59 261.23,-451.59 268.23,-451.59"/>
</g>
<!-- 7e9eacc901fe4299bc6937d653bd648e -->
<g id="node10" class="node">
<title>7e9eacc901fe4299bc6937d653bd648e</title>
<image xlink:href="/Users/hamadkhawaja/Developer/diagram-ai/.venv/lib/python3.13/site-packages/resources/aws/database/dynamodb.png" width="100.8px" height="100.8px" preserveAspectRatio="xMinYMin meet" x="31.6" y="-407.75"/>
<text text-anchor="middle" x="82" y="-289.2" font-family="Sans-Serif" font-size="13.00" fill="#2d3436">DynamoDB</text>
<text text-anchor="middle" x="82" y="-275.7" font-family="Sans-Serif" font-size="13.00" fill="#2d3436">Metadata</text>
</g>
<!-- 69693725c7cd413aad97c965d1451a95&#45;&gt;7e9eacc901fe4299bc6937d653bd648e -->
<g id="edge11" class="edge">
<title>69693725c7cd413aad97c965d1451a95&#45;&gt;7e9eacc901fe4299bc6937d653bd648e</title>
<path fill="none" stroke="#7b8894" d="M124.85,-1076.5C101.2,-1076.5 78.1,-1076.5 78.1,-1076.5 78.1,-1076.5 78.1,-451.36 78.1,-451.36"/>
<polygon fill="#7b8894" stroke="#7b8894" points="81.6,-451.36 78.1,-441.36 74.6,-451.36 81.6,-451.36"/>
</g>
<!-- 3ca3298810ab4bfdb5fb613a5c67c630 -->
<g id="node11" class="node">
<title>3ca3298810ab4bfdb5fb613a5c67c630</title>
<image xlink:href="/Users/hamadkhawaja/Developer/diagram-ai/.venv/lib/python3.13/site-packages/resources/aws/integration/simple-queue-service-sqs.png" width="100.8px" height="100.8px" preserveAspectRatio="xMinYMin meet" x="310.6" y="-893.45"/>
<text text-anchor="middle" x="361" y="-774.9" font-family="Sans-Serif" font-size="13.00" fill="#2d3436">SQS</text>
<text text-anchor="middle" x="361" y="-761.4" font-family="Sans-Serif" font-size="13.00" fill="#2d3436">Async Jobs</text>
</g>
<!-- 69693725c7cd413aad97c965d1451a95&#45;&gt;3ca3298810ab4bfdb5fb613a5c67c630 -->
<g id="edge6" class="edge">
<title>69693725c7cd413aad97c965d1451a95&#45;&gt;3ca3298810ab4bfdb5fb613a5c67c630</title>
<path fill="none" stroke="#7b8894" d="M191.8,-993.63C191.8,-955.49 191.8,-918.5 191.8,-918.5 191.8,-918.5 299.18,-918.5 299.18,-918.5"/>
<polygon fill="#7b8894" stroke="#7b8894" points="299.18,-922 309.18,-918.5 299.18,-915 299.18,-922"/>
<text text-anchor="middle" x="317.75" y="-954" font-family="Sans-Serif" font-size="13.00" fill="#2d3436">Async Task</text>
</g>
<!-- 89b8ef9aefb94394b086ac2c5dfeed57 -->
<g id="node12" class="node">
<title>89b8ef9aefb94394b086ac2c5dfeed57</title>
<image xlink:href="/Users/hamadkhawaja/Developer/diagram-ai/.venv/lib/python3.13/site-packages/resources/aws/security/identity-and-access-management-iam-role.png" width="100.8px" height="100.8px" preserveAspectRatio="xMinYMin meet" x="562.6" y="-174.3"/>
<text text-anchor="middle" x="613" y="-56.65" font-family="Sans-Serif" font-size="13.00" fill="#2d3436">IAM Roles</text>
</g>
<!-- 69693725c7cd413aad97c965d1451a95&#45;&gt;89b8ef9aefb94394b086ac2c5dfeed57 -->
<g id="edge13" class="edge">
<title>69693725c7cd413aad97c965d1451a95&#45;&gt;89b8ef9aefb94394b086ac2c5dfeed57</title>
<path fill="none" stroke="brown" stroke-dasharray="5,2" d="M225.24,-1059.5C340.29,-1059.5 613,-1059.5 613,-1059.5 613,-1059.5 613,-203.45 613,-203.45"/>
<polygon fill="brown" stroke="brown" points="616.5,-203.45 613,-193.45 609.5,-203.45 616.5,-203.45"/>
<text text-anchor="middle" x="974.62" y="-594.6" font-family="Sans-Serif" font-size="13.00" fill="#2d3436">IAM</text>
</g>
<!-- ae818b45fc824a279e72017212bbbcd3 -->
<g id="node13" class="node">
<title>ae818b45fc824a279e72017212bbbcd3</title>
<image xlink:href="/Users/hamadkhawaja/Developer/diagram-ai/.venv/lib/python3.13/site-packages/resources/aws/security/key-management-service.png" width="100.8px" height="100.8px" preserveAspectRatio="xMinYMin meet" x="706.6" y="-174.3"/>
<text text-anchor="middle" x="757" y="-56.65" font-family="Sans-Serif" font-size="13.00" fill="#2d3436">KMS</text>
</g>
<!-- 69693725c7cd413aad97c965d1451a95&#45;&gt;ae818b45fc824a279e72017212bbbcd3 -->
<g id="edge14" class="edge">
<title>69693725c7cd413aad97c965d1451a95&#45;&gt;ae818b45fc824a279e72017212bbbcd3</title>
<path fill="none" stroke="purple" stroke-dasharray="5,2" d="M225.31,-1092.5C372.67,-1092.5 793,-1092.5 793,-1092.5 793,-1092.5 793,-203.52 793,-203.52"/>
<polygon fill="purple" stroke="purple" points="796.5,-203.52 793,-193.52 789.5,-203.52 796.5,-203.52"/>
<text text-anchor="middle" x="1475.25" y="-594.6" font-family="Sans-Serif" font-size="13.00" fill="#2d3436">KMS</text>
</g>
<!-- 4c0cd16418734af28525b5272e76c17e -->
<g id="node14" class="node">
<title>4c0cd16418734af28525b5272e76c17e</title>
<image xlink:href="/Users/hamadkhawaja/Developer/diagram-ai/.venv/lib/python3.13/site-packages/resources/aws/management/cloudwatch.png" width="100.8px" height="100.8px" preserveAspectRatio="xMinYMin meet" x="850.6" y="-174.3"/>
<text text-anchor="middle" x="901" y="-56.65" font-family="Sans-Serif" font-size="13.00" fill="#2d3436">CloudWatch</text>
</g>
<!-- 69693725c7cd413aad97c965d1451a95&#45;&gt;4c0cd16418734af28525b5272e76c17e -->
<g id="edge25" class="edge">
<title>69693725c7cd413aad97c965d1451a95&#45;&gt;4c0cd16418734af28525b5272e76c17e</title>
<path fill="none" stroke="orange" stroke-dasharray="1,5" d="M225.2,-1125.5C394.11,-1125.5 931.24,-1125.5 931.24,-1125.5 931.24,-1125.5 931.24,-203.47 931.24,-203.47"/>
<polygon fill="orange" stroke="orange" points="934.74,-203.47 931.24,-193.47 927.74,-203.47 934.74,-203.47"/>
<text text-anchor="middle" x="1613.88" y="-594.6" font-family="Sans-Serif" font-size="13.00" fill="#2d3436">Metrics/Logs</text>
</g>
<!-- 0b2a7d689f8749b0aa953c1a9272a2a8 -->
<g id="node7" class="node">
<title>0b2a7d689f8749b0aa953c1a9272a2a8</title>
<image xlink:href="/Users/hamadkhawaja/Developer/diagram-ai/.venv/lib/python3.13/site-packages/resources/aws/ml/sagemaker.png" width="100.8px" height="100.8px" preserveAspectRatio="xMinYMin meet" x="158.6" y="-650.6"/>
<text text-anchor="middle" x="209" y="-532.05" font-family="Sans-Serif" font-size="13.00" fill="#2d3436">SageMaker</text>
<text text-anchor="middle" x="209" y="-518.55" font-family="Sans-Serif" font-size="13.00" fill="#2d3436">Train/Inference</text>
</g>
<!-- 87699cae13ba45ed8dfa71674e53708b&#45;&gt;0b2a7d689f8749b0aa953c1a9272a2a8 -->
<g id="edge4" class="edge">
<title>87699cae13ba45ed8dfa71674e53708b&#45;&gt;0b2a7d689f8749b0aa953c1a9272a2a8</title>
<path fill="none" stroke="#7b8894" d="M175.3,-774.76C175.3,-774.76 175.3,-694.15 175.3,-694.15"/>
<polygon fill="#7b8894" stroke="#7b8894" points="178.8,-694.15 175.3,-684.15 171.8,-694.15 178.8,-694.15"/>
<text text-anchor="middle" x="211.88" y="-720.9" font-family="Sans-Serif" font-size="13.00" fill="#2d3436">Invoke</text>
</g>
<!-- 8359a940721d420a8d5732d2def096d4 -->
<g id="node8" class="node">
<title>8359a940721d420a8d5732d2def096d4</title>
<image xlink:href="/Users/hamadkhawaja/Developer/diagram-ai/.venv/lib/python3.13/site-packages/resources/aws/ml/comprehend.png" width="100.8px" height="100.8px" preserveAspectRatio="xMinYMin meet" x="302.6" y="-650.6"/>
<text text-anchor="middle" x="353" y="-532.05" font-family="Sans-Serif" font-size="13.00" fill="#2d3436">Comprehend</text>
<text text-anchor="middle" x="353" y="-518.55" font-family="Sans-Serif" font-size="13.00" fill="#2d3436">NLP</text>
</g>
<!-- 87699cae13ba45ed8dfa71674e53708b&#45;&gt;8359a940721d420a8d5732d2def096d4 -->
<g id="edge5" class="edge">
<title>87699cae13ba45ed8dfa71674e53708b&#45;&gt;8359a940721d420a8d5732d2def096d4</title>
<path fill="none" stroke="#7b8894" d="M225.13,-820.5C262.32,-820.5 306.6,-820.5 306.6,-820.5 306.6,-820.5 306.6,-694.37 306.6,-694.37"/>
<polygon fill="#7b8894" stroke="#7b8894" points="310.1,-694.37 306.6,-684.37 303.1,-694.37 310.1,-694.37"/>
<text text-anchor="middle" x="330.12" y="-720.9" font-family="Sans-Serif" font-size="13.00" fill="#2d3436">NLP</text>
</g>
<!-- 87699cae13ba45ed8dfa71674e53708b&#45;&gt;7e9eacc901fe4299bc6937d653bd648e -->
<g id="edge12" class="edge">
<title>87699cae13ba45ed8dfa71674e53708b&#45;&gt;7e9eacc901fe4299bc6937d653bd648e</title>
<path fill="none" stroke="#7b8894" d="M128.5,-774.75C128.5,-774.75 128.5,-451.38 128.5,-451.38"/>
<polygon fill="#7b8894" stroke="#7b8894" points="132,-451.38 128.5,-441.38 125,-451.38 132,-451.38"/>
</g>
<!-- 87699cae13ba45ed8dfa71674e53708b&#45;&gt;89b8ef9aefb94394b086ac2c5dfeed57 -->
<g id="edge15" class="edge">
<title>87699cae13ba45ed8dfa71674e53708b&#45;&gt;89b8ef9aefb94394b086ac2c5dfeed57</title>
<path fill="none" stroke="brown" stroke-dasharray="5,2" d="M145.5,-774.95C145.5,-591.63 145.5,-101.5 145.5,-101.5 145.5,-101.5 551.46,-101.5 551.46,-101.5"/>
<polygon fill="brown" stroke="brown" points="551.46,-105 561.46,-101.5 551.46,-98 551.46,-105"/>
<text text-anchor="middle" x="570.62" y="-478.05" font-family="Sans-Serif" font-size="13.00" fill="#2d3436">IAM</text>
</g>
<!-- 87699cae13ba45ed8dfa71674e53708b&#45;&gt;ae818b45fc824a279e72017212bbbcd3 -->
<g id="edge16" class="edge">
<title>87699cae13ba45ed8dfa71674e53708b&#45;&gt;ae818b45fc824a279e72017212bbbcd3</title>
<path fill="none" stroke="purple" stroke-dasharray="5,2" d="M192,-774.99C192,-741.61 192,-708.5 192,-708.5 192,-708.5 778.6,-708.5 778.6,-708.5 778.6,-708.5 778.6,-203.62 778.6,-203.62"/>
<polygon fill="purple" stroke="purple" points="782.1,-203.62 778.6,-193.62 775.1,-203.62 782.1,-203.62"/>
<text text-anchor="middle" x="880.25" y="-478.05" font-family="Sans-Serif" font-size="13.00" fill="#2d3436">KMS</text>
</g>
<!-- 87699cae13ba45ed8dfa71674e53708b&#45;&gt;4c0cd16418734af28525b5272e76c17e -->
<g id="edge26" class="edge">
<title>87699cae13ba45ed8dfa71674e53708b&#45;&gt;4c0cd16418734af28525b5272e76c17e</title>
<path fill="none" stroke="orange" stroke-dasharray="1,5" d="M208.7,-774.92C208.7,-753.11 208.7,-734.5 208.7,-734.5 208.7,-734.5 911.08,-734.5 911.08,-734.5 911.08,-734.5 911.08,-203.68 911.08,-203.68"/>
<polygon fill="orange" stroke="orange" points="914.58,-203.68 911.08,-193.68 907.58,-203.68 914.58,-203.68"/>
<text text-anchor="middle" x="1393.88" y="-478.05" font-family="Sans-Serif" font-size="13.00" fill="#2d3436">Metrics/Logs</text>
</g>
<!-- 0b2a7d689f8749b0aa953c1a9272a2a8&#45;&gt;8e08d41985ce4c60a3bf2282d1bda864 -->
<g id="edge9" class="edge">
<title>0b2a7d689f8749b0aa953c1a9272a2a8&#45;&gt;8e08d41985ce4c60a3bf2282d1bda864</title>
<path fill="none" stroke="#7b8894" d="M196.55,-517.64C196.55,-517.64 196.55,-451.6 196.55,-451.6"/>
<polygon fill="#7b8894" stroke="#7b8894" points="200.05,-451.6 196.55,-441.6 193.05,-451.6 200.05,-451.6"/>
</g>
<!-- 0b2a7d689f8749b0aa953c1a9272a2a8&#45;&gt;89b8ef9aefb94394b086ac2c5dfeed57 -->
<g id="edge17" class="edge">
<title>0b2a7d689f8749b0aa953c1a9272a2a8&#45;&gt;89b8ef9aefb94394b086ac2c5dfeed57</title>
<path fill="none" stroke="brown" stroke-dasharray="5,2" d="M167.1,-517.44C167.1,-380.93 167.1,-123.5 167.1,-123.5 167.1,-123.5 551.2,-123.5 551.2,-123.5"/>
<polygon fill="brown" stroke="brown" points="551.2,-127 561.2,-123.5 551.2,-120 551.2,-127"/>
<text text-anchor="middle" x="373.62" y="-351.75" font-family="Sans-Serif" font-size="13.00" fill="#2d3436">IAM</text>
</g>
<!-- 0b2a7d689f8749b0aa953c1a9272a2a8&#45;&gt;ae818b45fc824a279e72017212bbbcd3 -->
<g id="edge18" class="edge">
<title>0b2a7d689f8749b0aa953c1a9272a2a8&#45;&gt;ae818b45fc824a279e72017212bbbcd3</title>
<path fill="none" stroke="purple" stroke-dasharray="5,2" d="M217.5,-517.58C217.5,-489.7 217.5,-465.5 217.5,-465.5 217.5,-465.5 749.8,-465.5 749.8,-465.5 749.8,-465.5 749.8,-203.72 749.8,-203.72"/>
<polygon fill="purple" stroke="purple" points="753.3,-203.72 749.8,-193.72 746.3,-203.72 753.3,-203.72"/>
<text text-anchor="middle" x="681.25" y="-351.75" font-family="Sans-Serif" font-size="13.00" fill="#2d3436">KMS</text>
</g>
<!-- 0b2a7d689f8749b0aa953c1a9272a2a8&#45;&gt;4c0cd16418734af28525b5272e76c17e -->
<g id="edge27" class="edge">
<title>0b2a7d689f8749b0aa953c1a9272a2a8&#45;&gt;4c0cd16418734af28525b5272e76c17e</title>
<path fill="none" stroke="orange" stroke-dasharray="1,5" d="M238.45,-517.54C238.45,-502.52 238.45,-491.5 238.45,-491.5 238.45,-491.5 870.76,-491.5 870.76,-491.5 870.76,-491.5 870.76,-203.69 870.76,-203.69"/>
<polygon fill="orange" stroke="orange" points="874.26,-203.69 870.76,-193.69 867.26,-203.69 874.26,-203.69"/>
<text text-anchor="middle" x="1108.88" y="-351.75" font-family="Sans-Serif" font-size="13.00" fill="#2d3436">Metrics/Logs</text>
</g>
<!-- 8359a940721d420a8d5732d2def096d4&#45;&gt;8e08d41985ce4c60a3bf2282d1bda864 -->
<g id="edge10" class="edge">
<title>8359a940721d420a8d5732d2def096d4&#45;&gt;8e08d41985ce4c60a3bf2282d1bda864</title>
<path fill="none" stroke="#7b8894" d="M302.84,-600.5C285.38,-600.5 270.07,-600.5 270.07,-600.5 270.07,-600.5 270.07,-451.52 270.07,-451.52"/>
<polygon fill="#7b8894" stroke="#7b8894" points="273.57,-451.52 270.07,-441.52 266.57,-451.52 273.57,-451.52"/>
</g>
<!-- 8359a940721d420a8d5732d2def096d4&#45;&gt;89b8ef9aefb94394b086ac2c5dfeed57 -->
<g id="edge19" class="edge">
<title>8359a940721d420a8d5732d2def096d4&#45;&gt;89b8ef9aefb94394b086ac2c5dfeed57</title>
<path fill="none" stroke="brown" stroke-dasharray="5,2" d="M353,-517.41C353,-392.3 353,-169.5 353,-169.5 353,-169.5 551.36,-169.5 551.36,-169.5"/>
<polygon fill="brown" stroke="brown" points="551.36,-173 561.36,-169.5 551.36,-166 551.36,-173"/>
<text text-anchor="middle" x="482.62" y="-351.75" font-family="Sans-Serif" font-size="13.00" fill="#2d3436">IAM</text>
</g>
<!-- 8359a940721d420a8d5732d2def096d4&#45;&gt;ae818b45fc824a279e72017212bbbcd3 -->
<g id="edge20" class="edge">
<title>8359a940721d420a8d5732d2def096d4&#45;&gt;ae818b45fc824a279e72017212bbbcd3</title>
<path fill="none" stroke="purple" stroke-dasharray="5,2" d="M403.01,-572.5C512.6,-572.5 764.2,-572.5 764.2,-572.5 764.2,-572.5 764.2,-203.55 764.2,-203.55"/>
<polygon fill="purple" stroke="purple" points="767.7,-203.55 764.2,-193.55 760.7,-203.55 767.7,-203.55"/>
<text text-anchor="middle" x="796.25" y="-351.75" font-family="Sans-Serif" font-size="13.00" fill="#2d3436">KMS</text>
</g>
<!-- 8359a940721d420a8d5732d2def096d4&#45;&gt;4c0cd16418734af28525b5272e76c17e -->
<g id="edge28" class="edge">
<title>8359a940721d420a8d5732d2def096d4&#45;&gt;4c0cd16418734af28525b5272e76c17e</title>
<path fill="none" stroke="orange" stroke-dasharray="1,5" d="M403.12,-627.5C536.66,-627.5 890.92,-627.5 890.92,-627.5 890.92,-627.5 890.92,-203.59 890.92,-203.59"/>
<polygon fill="orange" stroke="orange" points="894.42,-203.59 890.92,-193.59 887.42,-203.59 894.42,-203.59"/>
<text text-anchor="middle" x="1270.88" y="-351.75" font-family="Sans-Serif" font-size="13.00" fill="#2d3436">Metrics/Logs</text>
</g>
<!-- 8e08d41985ce4c60a3bf2282d1bda864&#45;&gt;89b8ef9aefb94394b086ac2c5dfeed57 -->
<g id="edge23" class="edge">
<title>8e08d41985ce4c60a3bf2282d1bda864&#45;&gt;89b8ef9aefb94394b086ac2c5dfeed57</title>
<path fill="none" stroke="brown" stroke-dasharray="5,2" d="M226,-274.62C226,-215.55 226,-146.5 226,-146.5 226,-146.5 551.29,-146.5 551.29,-146.5"/>
<polygon fill="brown" stroke="brown" points="551.29,-150 561.29,-146.5 551.29,-143 551.29,-150"/>
<text text-anchor="middle" x="283.62" y="-230.2" font-family="Sans-Serif" font-size="13.00" fill="#2d3436">IAM</text>
</g>
<!-- 8e08d41985ce4c60a3bf2282d1bda864&#45;&gt;ae818b45fc824a279e72017212bbbcd3 -->
<g id="edge24" class="edge">
<title>8e08d41985ce4c60a3bf2282d1bda864&#45;&gt;ae818b45fc824a279e72017212bbbcd3</title>
<path fill="none" stroke="purple" stroke-dasharray="5,2" d="M276.24,-357.5C404.75,-357.5 735.4,-357.5 735.4,-357.5 735.4,-357.5 735.4,-203.61 735.4,-203.61"/>
<polygon fill="purple" stroke="purple" points="738.9,-203.61 735.4,-193.61 731.9,-203.61 738.9,-203.61"/>
<text text-anchor="middle" x="691.25" y="-230.2" font-family="Sans-Serif" font-size="13.00" fill="#2d3436">KMS</text>
</g>
<!-- 7e9eacc901fe4299bc6937d653bd648e&#45;&gt;89b8ef9aefb94394b086ac2c5dfeed57 -->
<g id="edge21" class="edge">
<title>7e9eacc901fe4299bc6937d653bd648e&#45;&gt;89b8ef9aefb94394b086ac2c5dfeed57</title>
<path fill="none" stroke="brown" stroke-dasharray="5,2" d="M98.8,-274.82C98.8,-192.59 98.8,-78.5 98.8,-78.5 98.8,-78.5 551.25,-78.5 551.25,-78.5"/>
<polygon fill="brown" stroke="brown" points="551.25,-82 561.25,-78.5 551.25,-75 551.25,-82"/>
<text text-anchor="middle" x="133.62" y="-230.2" font-family="Sans-Serif" font-size="13.00" fill="#2d3436">IAM</text>
</g>
<!-- 7e9eacc901fe4299bc6937d653bd648e&#45;&gt;ae818b45fc824a279e72017212bbbcd3 -->
<g id="edge22" class="edge">
<title>7e9eacc901fe4299bc6937d653bd648e&#45;&gt;ae818b45fc824a279e72017212bbbcd3</title>
<path fill="none" stroke="purple" stroke-dasharray="5,2" d="M65.2,-274.74C65.2,-252.02 65.2,-233.5 65.2,-233.5 65.2,-233.5 721,-233.5 721,-233.5 721,-233.5 721,-203.58 721,-203.58"/>
<polygon fill="purple" stroke="purple" points="724.5,-203.58 721,-193.58 717.5,-203.58 724.5,-203.58"/>
<text text-anchor="middle" x="614.25" y="-230.2" font-family="Sans-Serif" font-size="13.00" fill="#2d3436">KMS</text>
</g>
<!-- 3ca3298810ab4bfdb5fb613a5c67c630&#45;&gt;87699cae13ba45ed8dfa71674e53708b -->
<g id="edge7" class="edge">
<title>3ca3298810ab4bfdb5fb613a5c67c630&#45;&gt;87699cae13ba45ed8dfa71674e53708b</title>
<path fill="none" stroke="#7b8894" d="M310.67,-865.5C310.67,-865.5 236.89,-865.5 236.89,-865.5"/>
<polygon fill="#7b8894" stroke="#7b8894" points="236.89,-862 226.89,-865.5 236.89,-869 236.89,-862"/>
</g>
</g>
</svg>
