<?xml version="1.0" encoding="UTF-8" standalone="no"?>
<!DOCTYPE svg PUBLIC "-//W3C//DTD SVG 1.1//EN"
 "http://www.w3.org/Graphics/SVG/1.1/DTD/svg11.dtd">
<!-- Generated by graphviz version 12.2.1 (20241206.2353)
 -->
<!-- Title: Three&#45;Tier Architecture Pages: 1 -->
<svg width="580pt" height="1110pt"
 viewBox="0.00 0.00 580.00 1110.45" xmlns="http://www.w3.org/2000/svg" xmlns:xlink="http://www.w3.org/1999/xlink">
<g id="graph0" class="graph" transform="scale(1 1) rotate(0) translate(144 966.45)">
<title>Three&#45;Tier Architecture</title>
<polygon fill="white" stroke="none" points="-144,144 -144,-966.45 436,-966.45 436,144 -144,144"/>
<text text-anchor="middle" x="146" y="-5.5" font-family="Sans-Serif" font-size="15.00" fill="#2d3436">Three&#45;Tier Architecture</text>
<g id="clust1" class="cluster">
<title>cluster_VPC</title>
<path fill="#e5f5fd" stroke="#aeb6be" d="M20,-31.75C20,-31.75 272,-31.75 272,-31.75 278,-31.75 284,-37.75 284,-43.75 284,-43.75 284,-802.45 284,-802.45 284,-808.45 278,-814.45 272,-814.45 272,-814.45 20,-814.45 20,-814.45 14,-814.45 8,-808.45 8,-802.45 8,-802.45 8,-43.75 8,-43.75 8,-37.75 14,-31.75 20,-31.75"/>
<text text-anchor="middle" x="28.75" y="-799.05" font-family="Sans-Serif" font-size="12.00" fill="#2d3436">VPC</text>
</g>
<g id="clust2" class="cluster">
<title>cluster_Public Subnet</title>
<path fill="#ebf3e7" stroke="#aeb6be" d="M28,-230.55C28,-230.55 264,-230.55 264,-230.55 270,-230.55 276,-236.55 276,-242.55 276,-242.55 276,-773.7 276,-773.7 276,-779.7 270,-785.7 264,-785.7 264,-785.7 28,-785.7 28,-785.7 22,-785.7 16,-779.7 16,-773.7 16,-773.7 16,-242.55 16,-242.55 16,-236.55 22,-230.55 28,-230.55"/>
<text text-anchor="middle" x="61.5" y="-770.3" font-family="Sans-Serif" font-size="12.00" fill="#2d3436">Public Subnet</text>
</g>
<g id="clust3" class="cluster">
<title>cluster_Private Subnet</title>
<path fill="#ebf3e7" stroke="#aeb6be" d="M100,-39.75C100,-39.75 192,-39.75 192,-39.75 198,-39.75 204,-45.75 204,-51.75 204,-51.75 204,-201.3 204,-201.3 204,-207.3 198,-213.3 192,-213.3 192,-213.3 100,-213.3 100,-213.3 94,-213.3 88,-207.3 88,-201.3 88,-201.3 88,-51.75 88,-51.75 88,-45.75 94,-39.75 100,-39.75"/>
<text text-anchor="middle" x="135.38" y="-197.9" font-family="Sans-Serif" font-size="12.00" fill="#2d3436">Private Subnet</text>
</g>
<!-- f1574464d2d14f869566a85d5186e0e7 -->
<g id="node1" class="node">
<title>f1574464d2d14f869566a85d5186e0e7</title>
<image xlink:href="/Users/hamadkhawaja/Developer/diagram-ai/.venv/lib/python3.13/site-packages/resources/aws/network/internet-gateway.png" width="100.8px" height="100.8px" preserveAspectRatio="xMinYMin meet" x="95.6" y="-738.95"/>
<text text-anchor="middle" x="146" y="-621.3" font-family="Sans-Serif" font-size="13.00" fill="#2d3436">Internet Gateway</text>
</g>
<!-- d4f70b0bdb924e6488e2ecad53087d9b -->
<g id="node2" class="node">
<title>d4f70b0bdb924e6488e2ecad53087d9b</title>
<image xlink:href="/Users/hamadkhawaja/Developer/diagram-ai/.venv/lib/python3.13/site-packages/resources/aws/network/elb-application-load-balancer.png" width="100.8px" height="100.8px" preserveAspectRatio="xMinYMin meet" x="95.6" y="-548.15"/>
<text text-anchor="middle" x="146" y="-430.5" font-family="Sans-Serif" font-size="13.00" fill="#2d3436">Load Balancer</text>
</g>
<!-- f1574464d2d14f869566a85d5186e0e7&#45;&gt;d4f70b0bdb924e6488e2ecad53087d9b -->
<g id="edge1" class="edge">
<title>f1574464d2d14f869566a85d5186e0e7&#45;&gt;d4f70b0bdb924e6488e2ecad53087d9b</title>
<path fill="none" stroke="#7b8894" d="M146,-620.21C146,-620.21 146,-577.45 146,-577.45"/>
<polygon fill="#7b8894" stroke="#7b8894" points="149.5,-577.45 146,-567.45 142.5,-577.45 149.5,-577.45"/>
</g>
<!-- 257fcc3cf55c4e948c041c3995326e3e -->
<g id="node3" class="node">
<title>257fcc3cf55c4e948c041c3995326e3e</title>
<image xlink:href="/Users/hamadkhawaja/Developer/diagram-ai/.venv/lib/python3.13/site-packages/resources/aws/compute/ec2.png" width="100.8px" height="100.8px" preserveAspectRatio="xMinYMin meet" x="23.6" y="-357.35"/>
<text text-anchor="middle" x="74" y="-239.7" font-family="Sans-Serif" font-size="13.00" fill="#2d3436">Web Server 1</text>
</g>
<!-- d4f70b0bdb924e6488e2ecad53087d9b&#45;&gt;257fcc3cf55c4e948c041c3995326e3e -->
<g id="edge2" class="edge">
<title>d4f70b0bdb924e6488e2ecad53087d9b&#45;&gt;257fcc3cf55c4e948c041c3995326e3e</title>
<path fill="none" stroke="#7b8894" d="M110,-429.41C110,-429.41 110,-386.65 110,-386.65"/>
<polygon fill="#7b8894" stroke="#7b8894" points="113.5,-386.65 110,-376.65 106.5,-386.65 113.5,-386.65"/>
</g>
<!-- e670176f0aa74a0d9eb04990dd3065ee -->
<g id="node4" class="node">
<title>e670176f0aa74a0d9eb04990dd3065ee</title>
<image xlink:href="/Users/hamadkhawaja/Developer/diagram-ai/.venv/lib/python3.13/site-packages/resources/aws/compute/ec2.png" width="100.8px" height="100.8px" preserveAspectRatio="xMinYMin meet" x="167.6" y="-357.35"/>
<text text-anchor="middle" x="218" y="-239.7" font-family="Sans-Serif" font-size="13.00" fill="#2d3436">Web Server 2</text>
</g>
<!-- d4f70b0bdb924e6488e2ecad53087d9b&#45;&gt;e670176f0aa74a0d9eb04990dd3065ee -->
<g id="edge3" class="edge">
<title>d4f70b0bdb924e6488e2ecad53087d9b&#45;&gt;e670176f0aa74a0d9eb04990dd3065ee</title>
<path fill="none" stroke="#7b8894" d="M182,-429.41C182,-429.41 182,-386.65 182,-386.65"/>
<polygon fill="#7b8894" stroke="#7b8894" points="185.5,-386.65 182,-376.65 178.5,-386.65 185.5,-386.65"/>
</g>
<!-- 55be5112479447c8934726aea5ffd41e -->
<g id="node5" class="node">
<title>55be5112479447c8934726aea5ffd41e</title>
<image xlink:href="/Users/hamadkhawaja/Developer/diagram-ai/.venv/lib/python3.13/site-packages/resources/aws/database/aurora.png" width="100.8px" height="100.8px" preserveAspectRatio="xMinYMin meet" x="95.6" y="-166.55"/>
<text text-anchor="middle" x="146" y="-48.9" font-family="Sans-Serif" font-size="13.00" fill="#2d3436">Aurora Database</text>
</g>
<!-- 257fcc3cf55c4e948c041c3995326e3e&#45;&gt;55be5112479447c8934726aea5ffd41e -->
<g id="edge4" class="edge">
<title>257fcc3cf55c4e948c041c3995326e3e&#45;&gt;55be5112479447c8934726aea5ffd41e</title>
<path fill="none" stroke="#7b8894" d="M110,-238.61C110,-238.61 110,-195.85 110,-195.85"/>
<polygon fill="#7b8894" stroke="#7b8894" points="113.5,-195.85 110,-185.85 106.5,-195.85 113.5,-195.85"/>
</g>
<!-- e670176f0aa74a0d9eb04990dd3065ee&#45;&gt;55be5112479447c8934726aea5ffd41e -->
<g id="edge5" class="edge">
<title>e670176f0aa74a0d9eb04990dd3065ee&#45;&gt;55be5112479447c8934726aea5ffd41e</title>
<path fill="none" stroke="#7b8894" d="M182,-238.61C182,-238.61 182,-195.85 182,-195.85"/>
<polygon fill="#7b8894" stroke="#7b8894" points="185.5,-195.85 182,-185.85 178.5,-195.85 185.5,-195.85"/>
</g>
</g>
</svg>
