<?xml version="1.0" encoding="UTF-8" standalone="no"?>
<!DOCTYPE svg PUBLIC "-//W3C//DTD SVG 1.1//EN"
 "http://www.w3.org/Graphics/SVG/1.1/DTD/svg11.dtd">
<!-- Generated by graphviz version 12.2.1 (20241206.2353)
 -->
<!-- Title: 3&#45;Tier AWS Architecture Pages: 1 -->
<svg width="924pt" height="1110pt"
 viewBox="0.00 0.00 924.00 1110.45" xmlns="http://www.w3.org/2000/svg" xmlns:xlink="http://www.w3.org/1999/xlink">
<g id="graph0" class="graph" transform="scale(1 1) rotate(0) translate(144 966.45)">
<title>3&#45;Tier AWS Architecture</title>
<polygon fill="white" stroke="none" points="-144,144 -144,-966.45 780,-966.45 780,144 -144,144"/>
<text text-anchor="middle" x="318" y="-5.5" font-family="Sans-Serif" font-size="15.00" fill="#2d3436">3&#45;Tier AWS Architecture</text>
<g id="clust1" class="cluster">
<title>cluster_VPC (us&#45;east&#45;1)</title>
<path fill="#e5f5fd" stroke="#aeb6be" d="M20,-31.75C20,-31.75 616,-31.75 616,-31.75 622,-31.75 628,-37.75 628,-43.75 628,-43.75 628,-802.45 628,-802.45 628,-808.45 622,-814.45 616,-814.45 616,-814.45 20,-814.45 20,-814.45 14,-814.45 8,-808.45 8,-802.45 8,-802.45 8,-43.75 8,-43.75 8,-37.75 14,-31.75 20,-31.75"/>
<text text-anchor="middle" x="58.75" y="-799.05" font-family="Sans-Serif" font-size="12.00" fill="#2d3436">VPC (us&#45;east&#45;1)</text>
</g>
<g id="clust2" class="cluster">
<title>cluster_Public Subnet</title>
<path fill="#ebf3e7" stroke="#aeb6be" d="M200,-421.35C200,-421.35 436,-421.35 436,-421.35 442,-421.35 448,-427.35 448,-433.35 448,-433.35 448,-773.7 448,-773.7 448,-779.7 442,-785.7 436,-785.7 436,-785.7 200,-785.7 200,-785.7 194,-785.7 188,-779.7 188,-773.7 188,-773.7 188,-433.35 188,-433.35 188,-427.35 194,-421.35 200,-421.35"/>
<text text-anchor="middle" x="233.5" y="-770.3" font-family="Sans-Serif" font-size="12.00" fill="#2d3436">Public Subnet</text>
</g>
<g id="clust3" class="cluster">
<title>cluster_Private Subnet</title>
<path fill="#ebf3e7" stroke="#aeb6be" d="M200,-230.55C200,-230.55 436,-230.55 436,-230.55 442,-230.55 448,-236.55 448,-242.55 448,-242.55 448,-392.1 448,-392.1 448,-398.1 442,-404.1 436,-404.1 436,-404.1 200,-404.1 200,-404.1 194,-404.1 188,-398.1 188,-392.1 188,-392.1 188,-242.55 188,-242.55 188,-236.55 194,-230.55 200,-230.55"/>
<text text-anchor="middle" x="235.38" y="-388.7" font-family="Sans-Serif" font-size="12.00" fill="#2d3436">Private Subnet</text>
</g>
<g id="clust4" class="cluster">
<title>cluster_Database Subnet</title>
<path fill="#ebf3e7" stroke="#aeb6be" d="M200,-39.75C200,-39.75 436,-39.75 436,-39.75 442,-39.75 448,-45.75 448,-51.75 448,-51.75 448,-201.3 448,-201.3 448,-207.3 442,-213.3 436,-213.3 436,-213.3 200,-213.3 200,-213.3 194,-213.3 188,-207.3 188,-201.3 188,-201.3 188,-51.75 188,-51.75 188,-45.75 194,-39.75 200,-39.75"/>
<text text-anchor="middle" x="242.5" y="-197.9" font-family="Sans-Serif" font-size="12.00" fill="#2d3436">Database Subnet</text>
</g>
<!-- 3d370dd04c384e93a628d57faa3fe6d0 -->
<g id="node1" class="node">
<title>3d370dd04c384e93a628d57faa3fe6d0</title>
<image xlink:href="/Users/hamadkhawaja/Developer/diagram-ai/.venv/lib/python3.13/site-packages/resources/aws/network/elb-application-load-balancer.png" width="100.8px" height="100.8px" preserveAspectRatio="xMinYMin meet" x="266.6" y="-738.95"/>
<text text-anchor="middle" x="317" y="-621.3" font-family="Sans-Serif" font-size="13.00" fill="#2d3436">Load Balancer</text>
</g>
<!-- fa0946b62ab54351a62d3f303fec2702 -->
<g id="node2" class="node">
<title>fa0946b62ab54351a62d3f303fec2702</title>
<image xlink:href="/Users/hamadkhawaja/Developer/diagram-ai/.venv/lib/python3.13/site-packages/resources/aws/compute/ec2.png" width="100.8px" height="100.8px" preserveAspectRatio="xMinYMin meet" x="195.6" y="-548.15"/>
<text text-anchor="middle" x="246" y="-430.5" font-family="Sans-Serif" font-size="13.00" fill="#2d3436">Web Server 1</text>
</g>
<!-- 3d370dd04c384e93a628d57faa3fe6d0&#45;&gt;fa0946b62ab54351a62d3f303fec2702 -->
<g id="edge1" class="edge">
<title>3d370dd04c384e93a628d57faa3fe6d0&#45;&gt;fa0946b62ab54351a62d3f303fec2702</title>
<path fill="none" stroke="#7b8894" d="M276.53,-620.21C276.53,-620.21 276.53,-577.45 276.53,-577.45"/>
<polygon fill="#7b8894" stroke="#7b8894" points="280.03,-577.45 276.53,-567.45 273.03,-577.45 280.03,-577.45"/>
</g>
<!-- 97209fbd6cc74b8c9e0ffdaeae223d13 -->
<g id="node3" class="node">
<title>97209fbd6cc74b8c9e0ffdaeae223d13</title>
<image xlink:href="/Users/hamadkhawaja/Developer/diagram-ai/.venv/lib/python3.13/site-packages/resources/aws/compute/ec2.png" width="100.8px" height="100.8px" preserveAspectRatio="xMinYMin meet" x="339.6" y="-548.15"/>
<text text-anchor="middle" x="390" y="-430.5" font-family="Sans-Serif" font-size="13.00" fill="#2d3436">Web Server 2</text>
</g>
<!-- 3d370dd04c384e93a628d57faa3fe6d0&#45;&gt;97209fbd6cc74b8c9e0ffdaeae223d13 -->
<g id="edge2" class="edge">
<title>3d370dd04c384e93a628d57faa3fe6d0&#45;&gt;97209fbd6cc74b8c9e0ffdaeae223d13</title>
<path fill="none" stroke="#7b8894" d="M358.13,-620.21C358.13,-620.21 358.13,-577.45 358.13,-577.45"/>
<polygon fill="#7b8894" stroke="#7b8894" points="361.63,-577.45 358.13,-567.45 354.63,-577.45 361.63,-577.45"/>
</g>
<!-- 1397b5a6696d454ba3acad48b47c8d24 -->
<g id="node4" class="node">
<title>1397b5a6696d454ba3acad48b47c8d24</title>
<image xlink:href="/Users/hamadkhawaja/Developer/diagram-ai/.venv/lib/python3.13/site-packages/resources/aws/compute/ec2.png" width="100.8px" height="100.8px" preserveAspectRatio="xMinYMin meet" x="195.6" y="-357.35"/>
<text text-anchor="middle" x="246" y="-239.7" font-family="Sans-Serif" font-size="13.00" fill="#2d3436">App Server 1</text>
</g>
<!-- fa0946b62ab54351a62d3f303fec2702&#45;&gt;1397b5a6696d454ba3acad48b47c8d24 -->
<g id="edge3" class="edge">
<title>fa0946b62ab54351a62d3f303fec2702&#45;&gt;1397b5a6696d454ba3acad48b47c8d24</title>
<path fill="none" stroke="#7b8894" d="M215.76,-429.41C215.76,-429.41 215.76,-386.65 215.76,-386.65"/>
<polygon fill="#7b8894" stroke="#7b8894" points="219.26,-386.65 215.76,-376.65 212.26,-386.65 219.26,-386.65"/>
</g>
<!-- 361c028c09cd481c992082127516aff2 -->
<g id="node5" class="node">
<title>361c028c09cd481c992082127516aff2</title>
<image xlink:href="/Users/hamadkhawaja/Developer/diagram-ai/.venv/lib/python3.13/site-packages/resources/aws/compute/ec2.png" width="100.8px" height="100.8px" preserveAspectRatio="xMinYMin meet" x="339.6" y="-357.35"/>
<text text-anchor="middle" x="390" y="-239.7" font-family="Sans-Serif" font-size="13.00" fill="#2d3436">App Server 2</text>
</g>
<!-- fa0946b62ab54351a62d3f303fec2702&#45;&gt;361c028c09cd481c992082127516aff2 -->
<g id="edge4" class="edge">
<title>fa0946b62ab54351a62d3f303fec2702&#45;&gt;361c028c09cd481c992082127516aff2</title>
<path fill="none" stroke="#7b8894" d="M235.92,-429.54C235.92,-411.4 235.92,-396.75 235.92,-396.75 235.92,-396.75 379.92,-396.75 379.92,-396.75 379.92,-396.75 379.92,-386.53 379.92,-386.53"/>
<polygon fill="#7b8894" stroke="#7b8894" points="383.42,-386.53 379.92,-376.53 376.42,-386.53 383.42,-386.53"/>
</g>
<!-- 97209fbd6cc74b8c9e0ffdaeae223d13&#45;&gt;1397b5a6696d454ba3acad48b47c8d24 -->
<g id="edge5" class="edge">
<title>97209fbd6cc74b8c9e0ffdaeae223d13&#45;&gt;1397b5a6696d454ba3acad48b47c8d24</title>
<path fill="none" stroke="#7b8894" d="M400.08,-429.4C400.08,-422.95 400.08,-418.75 400.08,-418.75 400.08,-418.75 256.08,-418.75 256.08,-418.75 256.08,-418.75 256.08,-386.72 256.08,-386.72"/>
<polygon fill="#7b8894" stroke="#7b8894" points="259.58,-386.72 256.08,-376.72 252.58,-386.72 259.58,-386.72"/>
</g>
<!-- 97209fbd6cc74b8c9e0ffdaeae223d13&#45;&gt;361c028c09cd481c992082127516aff2 -->
<g id="edge6" class="edge">
<title>97209fbd6cc74b8c9e0ffdaeae223d13&#45;&gt;361c028c09cd481c992082127516aff2</title>
<path fill="none" stroke="#7b8894" d="M420.24,-429.41C420.24,-429.41 420.24,-386.65 420.24,-386.65"/>
<polygon fill="#7b8894" stroke="#7b8894" points="423.74,-386.65 420.24,-376.65 416.74,-386.65 423.74,-386.65"/>
</g>
<!-- aa73f00ddccf4d55bfb0fea5cd174eff -->
<g id="node6" class="node">
<title>aa73f00ddccf4d55bfb0fea5cd174eff</title>
<image xlink:href="/Users/hamadkhawaja/Developer/diagram-ai/.venv/lib/python3.13/site-packages/resources/aws/database/rds.png" width="100.8px" height="100.8px" preserveAspectRatio="xMinYMin meet" x="195.6" y="-166.55"/>
<text text-anchor="middle" x="246" y="-48.9" font-family="Sans-Serif" font-size="13.00" fill="#2d3436">Aurora Primary</text>
</g>
<!-- 1397b5a6696d454ba3acad48b47c8d24&#45;&gt;aa73f00ddccf4d55bfb0fea5cd174eff -->
<g id="edge7" class="edge">
<title>1397b5a6696d454ba3acad48b47c8d24&#45;&gt;aa73f00ddccf4d55bfb0fea5cd174eff</title>
<path fill="none" stroke="#7b8894" d="M215.76,-238.61C215.76,-238.61 215.76,-195.85 215.76,-195.85"/>
<polygon fill="#7b8894" stroke="#7b8894" points="219.26,-195.85 215.76,-185.85 212.26,-195.85 219.26,-195.85"/>
</g>
<!-- d4ed9468192845e4b65ddb0f2c216a19 -->
<g id="node7" class="node">
<title>d4ed9468192845e4b65ddb0f2c216a19</title>
<image xlink:href="/Users/hamadkhawaja/Developer/diagram-ai/.venv/lib/python3.13/site-packages/resources/aws/database/rds.png" width="100.8px" height="100.8px" preserveAspectRatio="xMinYMin meet" x="339.6" y="-166.55"/>
<text text-anchor="middle" x="390" y="-48.9" font-family="Sans-Serif" font-size="13.00" fill="#2d3436">Aurora Replica</text>
</g>
<!-- 1397b5a6696d454ba3acad48b47c8d24&#45;&gt;d4ed9468192845e4b65ddb0f2c216a19 -->
<g id="edge8" class="edge">
<title>1397b5a6696d454ba3acad48b47c8d24&#45;&gt;d4ed9468192845e4b65ddb0f2c216a19</title>
<path fill="none" stroke="#7b8894" d="M276.24,-238.61C276.24,-220.43 276.24,-205.75 276.24,-205.75 276.24,-205.75 400.08,-205.75 400.08,-205.75 400.08,-205.75 400.08,-196.03 400.08,-196.03"/>
<polygon fill="#7b8894" stroke="#7b8894" points="403.58,-196.03 400.08,-186.03 396.58,-196.03 403.58,-196.03"/>
</g>
<!-- 361c028c09cd481c992082127516aff2&#45;&gt;aa73f00ddccf4d55bfb0fea5cd174eff -->
<g id="edge9" class="edge">
<title>361c028c09cd481c992082127516aff2&#45;&gt;aa73f00ddccf4d55bfb0fea5cd174eff</title>
<path fill="none" stroke="#7b8894" d="M379.92,-238.76C379.92,-232.1 379.92,-227.75 379.92,-227.75 379.92,-227.75 235.92,-227.75 235.92,-227.75 235.92,-227.75 235.92,-195.8 235.92,-195.8"/>
<polygon fill="#7b8894" stroke="#7b8894" points="239.42,-195.8 235.92,-185.8 232.42,-195.8 239.42,-195.8"/>
</g>
<!-- 361c028c09cd481c992082127516aff2&#45;&gt;d4ed9468192845e4b65ddb0f2c216a19 -->
<g id="edge10" class="edge">
<title>361c028c09cd481c992082127516aff2&#45;&gt;d4ed9468192845e4b65ddb0f2c216a19</title>
<path fill="none" stroke="#7b8894" d="M420.24,-238.61C420.24,-238.61 420.24,-195.85 420.24,-195.85"/>
<polygon fill="#7b8894" stroke="#7b8894" points="423.74,-195.85 420.24,-185.85 416.74,-195.85 423.74,-195.85"/>
</g>
<!-- 5cbbf8803bcc4044b93c7b6c05133b42 -->
<g id="node8" class="node">
<title>5cbbf8803bcc4044b93c7b6c05133b42</title>
<image xlink:href="/Users/hamadkhawaja/Developer/diagram-ai/.venv/lib/python3.13/site-packages/resources/aws/network/nacl.png" width="100.8px" height="100.8px" preserveAspectRatio="xMinYMin meet" x="67.6" y="-738.95"/>
<text text-anchor="middle" x="118" y="-621.3" font-family="Sans-Serif" font-size="13.00" fill="#2d3436">Network ACL</text>
</g>
<!-- 5cbbf8803bcc4044b93c7b6c05133b42&#45;&gt;fa0946b62ab54351a62d3f303fec2702 -->
<g id="edge11" class="edge">
<title>5cbbf8803bcc4044b93c7b6c05133b42&#45;&gt;fa0946b62ab54351a62d3f303fec2702</title>
<path fill="none" stroke="#7b8894" d="M168.27,-688.75C198.47,-688.75 231.1,-688.75 231.1,-688.75 231.1,-688.75 231.1,-577.41 231.1,-577.41"/>
<polygon fill="#7b8894" stroke="#7b8894" points="234.6,-577.41 231.1,-567.41 227.6,-577.41 234.6,-577.41"/>
</g>
<!-- 5cbbf8803bcc4044b93c7b6c05133b42&#45;&gt;97209fbd6cc74b8c9e0ffdaeae223d13 -->
<g id="edge12" class="edge">
<title>5cbbf8803bcc4044b93c7b6c05133b42&#45;&gt;97209fbd6cc74b8c9e0ffdaeae223d13</title>
<path fill="none" stroke="#7b8894" d="M151.6,-620.16C151.6,-609.4 151.6,-601.75 151.6,-601.75 151.6,-601.75 348.87,-601.75 348.87,-601.75 348.87,-601.75 348.87,-577.47 348.87,-577.47"/>
<polygon fill="#7b8894" stroke="#7b8894" points="352.37,-577.47 348.87,-567.47 345.37,-577.47 352.37,-577.47"/>
</g>
<!-- 5cbbf8803bcc4044b93c7b6c05133b42&#45;&gt;1397b5a6696d454ba3acad48b47c8d24 -->
<g id="edge13" class="edge">
<title>5cbbf8803bcc4044b93c7b6c05133b42&#45;&gt;1397b5a6696d454ba3acad48b47c8d24</title>
<path fill="none" stroke="#7b8894" d="M118,-620.29C118,-510.47 118,-306.75 118,-306.75 118,-306.75 184.26,-306.75 184.26,-306.75"/>
<polygon fill="#7b8894" stroke="#7b8894" points="184.26,-310.25 194.26,-306.75 184.26,-303.25 184.26,-310.25"/>
</g>
<!-- 5cbbf8803bcc4044b93c7b6c05133b42&#45;&gt;361c028c09cd481c992082127516aff2 -->
<g id="edge14" class="edge">
<title>5cbbf8803bcc4044b93c7b6c05133b42&#45;&gt;361c028c09cd481c992082127516aff2</title>
<path fill="none" stroke="#7b8894" d="M134.8,-620.22C134.8,-530.91 134.8,-385.75 134.8,-385.75 134.8,-385.75 359.76,-385.75 359.76,-385.75 359.76,-385.75 359.76,-384.69 359.76,-384.69"/>
<polygon fill="#7b8894" stroke="#7b8894" points="363.26,-386.64 359.76,-376.64 356.26,-386.64 363.26,-386.64"/>
</g>
<!-- 5cbbf8803bcc4044b93c7b6c05133b42&#45;&gt;aa73f00ddccf4d55bfb0fea5cd174eff -->
<g id="edge15" class="edge">
<title>5cbbf8803bcc4044b93c7b6c05133b42&#45;&gt;aa73f00ddccf4d55bfb0fea5cd174eff</title>
<path fill="none" stroke="#7b8894" d="M84.4,-620.31C84.4,-468.43 84.4,-115.75 84.4,-115.75 84.4,-115.75 184.24,-115.75 184.24,-115.75"/>
<polygon fill="#7b8894" stroke="#7b8894" points="184.24,-119.25 194.24,-115.75 184.24,-112.25 184.24,-119.25"/>
</g>
<!-- 5cbbf8803bcc4044b93c7b6c05133b42&#45;&gt;d4ed9468192845e4b65ddb0f2c216a19 -->
<g id="edge16" class="edge">
<title>5cbbf8803bcc4044b93c7b6c05133b42&#45;&gt;d4ed9468192845e4b65ddb0f2c216a19</title>
<path fill="none" stroke="#7b8894" d="M101.2,-620.29C101.2,-484.99 101.2,-195.75 101.2,-195.75 101.2,-195.75 359.76,-195.75 359.76,-195.75 359.76,-195.75 359.76,-194.61 359.76,-194.61"/>
<polygon fill="#7b8894" stroke="#7b8894" points="363.26,-195.86 359.76,-185.86 356.26,-195.86 363.26,-195.86"/>
</g>
<!-- 78de16ebb757491e872a909467f3ce45 -->
<g id="node9" class="node">
<title>78de16ebb757491e872a909467f3ce45</title>
<image xlink:href="/Users/hamadkhawaja/Developer/diagram-ai/.venv/lib/python3.13/site-packages/resources/aws/security/identity-and-access-management-iam.png" width="100.8px" height="100.8px" preserveAspectRatio="xMinYMin meet" x="466.6" y="-738.95"/>
<text text-anchor="middle" x="517" y="-621.3" font-family="Sans-Serif" font-size="13.00" fill="#2d3436">IAM Roles</text>
</g>
<!-- 78de16ebb757491e872a909467f3ce45&#45;&gt;fa0946b62ab54351a62d3f303fec2702 -->
<g id="edge17" class="edge">
<title>78de16ebb757491e872a909467f3ce45&#45;&gt;fa0946b62ab54351a62d3f303fec2702</title>
<path fill="none" stroke="#7b8894" d="M483.4,-620.4C483.4,-600.39 483.4,-583.75 483.4,-583.75 483.4,-583.75 286.47,-583.75 286.47,-583.75 286.47,-583.75 286.47,-577.44 286.47,-577.44"/>
<polygon fill="#7b8894" stroke="#7b8894" points="289.97,-577.44 286.47,-567.44 282.97,-577.44 289.97,-577.44"/>
</g>
<!-- 78de16ebb757491e872a909467f3ce45&#45;&gt;97209fbd6cc74b8c9e0ffdaeae223d13 -->
<g id="edge18" class="edge">
<title>78de16ebb757491e872a909467f3ce45&#45;&gt;97209fbd6cc74b8c9e0ffdaeae223d13</title>
<path fill="none" stroke="#7b8894" d="M466.73,-688.75C436.53,-688.75 403.9,-688.75 403.9,-688.75 403.9,-688.75 403.9,-577.41 403.9,-577.41"/>
<polygon fill="#7b8894" stroke="#7b8894" points="407.4,-577.41 403.9,-567.41 400.4,-577.41 407.4,-577.41"/>
</g>
<!-- 78de16ebb757491e872a909467f3ce45&#45;&gt;1397b5a6696d454ba3acad48b47c8d24 -->
<g id="edge19" class="edge">
<title>78de16ebb757491e872a909467f3ce45&#45;&gt;1397b5a6696d454ba3acad48b47c8d24</title>
<path fill="none" stroke="#7b8894" d="M500.2,-620.22C500.2,-537.1 500.2,-407.75 500.2,-407.75 500.2,-407.75 276.24,-407.75 276.24,-407.75 276.24,-407.75 276.24,-386.81 276.24,-386.81"/>
<polygon fill="#7b8894" stroke="#7b8894" points="279.74,-386.81 276.24,-376.81 272.74,-386.81 279.74,-386.81"/>
</g>
<!-- 78de16ebb757491e872a909467f3ce45&#45;&gt;361c028c09cd481c992082127516aff2 -->
<g id="edge20" class="edge">
<title>78de16ebb757491e872a909467f3ce45&#45;&gt;361c028c09cd481c992082127516aff2</title>
<path fill="none" stroke="#7b8894" d="M517,-620.29C517,-510.47 517,-306.75 517,-306.75 517,-306.75 451.71,-306.75 451.71,-306.75"/>
<polygon fill="#7b8894" stroke="#7b8894" points="451.71,-303.25 441.71,-306.75 451.71,-310.25 451.71,-303.25"/>
</g>
<!-- 78de16ebb757491e872a909467f3ce45&#45;&gt;aa73f00ddccf4d55bfb0fea5cd174eff -->
<g id="edge21" class="edge">
<title>78de16ebb757491e872a909467f3ce45&#45;&gt;aa73f00ddccf4d55bfb0fea5cd174eff</title>
<path fill="none" stroke="#7b8894" d="M533.8,-620.2C533.8,-489.44 533.8,-216.75 533.8,-216.75 533.8,-216.75 256.08,-216.75 256.08,-216.75 256.08,-216.75 256.08,-195.88 256.08,-195.88"/>
<polygon fill="#7b8894" stroke="#7b8894" points="259.58,-195.88 256.08,-185.88 252.58,-195.88 259.58,-195.88"/>
</g>
<!-- 78de16ebb757491e872a909467f3ce45&#45;&gt;d4ed9468192845e4b65ddb0f2c216a19 -->
<g id="edge22" class="edge">
<title>78de16ebb757491e872a909467f3ce45&#45;&gt;d4ed9468192845e4b65ddb0f2c216a19</title>
<path fill="none" stroke="#7b8894" d="M550.6,-620.31C550.6,-468.43 550.6,-115.75 550.6,-115.75 550.6,-115.75 451.89,-115.75 451.89,-115.75"/>
<polygon fill="#7b8894" stroke="#7b8894" points="451.89,-112.25 441.89,-115.75 451.89,-119.25 451.89,-112.25"/>
</g>
</g>
</svg>
