<?xml version="1.0" encoding="UTF-8" standalone="no"?>
<!DOCTYPE svg PUBLIC "-//W3C//DTD SVG 1.1//EN"
 "http://www.w3.org/Graphics/SVG/1.1/DTD/svg11.dtd">
<!-- Generated by graphviz version 12.2.1 (20241206.2353)
 -->
<!-- Title: AWS Serverless Web Backend Pages: 1 -->
<svg width="840pt" height="1025pt"
 viewBox="0.00 0.00 840.40 1025.15" xmlns="http://www.w3.org/2000/svg" xmlns:xlink="http://www.w3.org/1999/xlink">
<g id="graph0" class="graph" transform="scale(1 1) rotate(0) translate(144 881.15)">
<title>AWS Serverless Web Backend</title>
<polygon fill="white" stroke="none" points="-144,144 -144,-881.15 696.4,-881.15 696.4,144 -144,144"/>
<text text-anchor="middle" x="276.2" y="-5.5" font-family="Sans-Serif" font-size="15.00" fill="#2d3436">AWS Serverless Web Backend</text>
<g id="clust1" class="cluster">
<title>cluster_Serverless Compute</title>
<path fill="#e5f5fd" stroke="#aeb6be" d="M198.55,-556.15C198.55,-556.15 532.4,-556.15 532.4,-556.15 538.4,-556.15 544.4,-562.15 544.4,-568.15 544.4,-568.15 544.4,-717.15 544.4,-717.15 544.4,-723.15 538.4,-729.15 532.4,-729.15 532.4,-729.15 198.55,-729.15 198.55,-729.15 192.55,-729.15 186.55,-723.15 186.55,-717.15 186.55,-717.15 186.55,-568.15 186.55,-568.15 186.55,-562.15 192.55,-556.15 198.55,-556.15"/>
<text text-anchor="middle" x="248.92" y="-713.75" font-family="Sans-Serif" font-size="12.00" fill="#2d3436">Serverless Compute</text>
</g>
<!-- 10666b929d344d3e9ef77620bb15775a -->
<g id="node1" class="node">
<title>10666b929d344d3e9ef77620bb15775a</title>
<image xlink:href="/Users/hamadkhawaja/Developer/diagram-ai/venv/lib/python3.13/site-packages/resources/aws/network/api-gateway.png" width="100.8px" height="100.8px" preserveAspectRatio="xMinYMin meet" x="-2.84217e-14" y="-682.55"/>
<text text-anchor="middle" x="50.4" y="-564.9" font-family="Sans-Serif" font-size="13.00" fill="#2d3436">API Gateway</text>
</g>
<!-- 8a17d215d7e04aa086d6b41e9f4230bf -->
<g id="node2" class="node">
<title>8a17d215d7e04aa086d6b41e9f4230bf</title>
<image xlink:href="/Users/hamadkhawaja/Developer/diagram-ai/venv/lib/python3.13/site-packages/resources/aws/compute/lambda.png" width="100.8px" height="100.8px" preserveAspectRatio="xMinYMin meet" x="194.55" y="-682.55"/>
<text text-anchor="middle" x="244.95" y="-564.9" font-family="Sans-Serif" font-size="13.00" fill="#2d3436">Lambda Function</text>
</g>
<!-- 10666b929d344d3e9ef77620bb15775a&#45;&gt;8a17d215d7e04aa086d6b41e9f4230bf -->
<g id="edge2" class="edge">
<title>10666b929d344d3e9ef77620bb15775a&#45;&gt;8a17d215d7e04aa086d6b41e9f4230bf</title>
<path fill="none" stroke="#7b8894" d="M100.75,-632.15C100.75,-632.15 183.29,-632.15 183.29,-632.15"/>
<polygon fill="#7b8894" stroke="#7b8894" points="183.29,-635.65 193.29,-632.15 183.29,-628.65 183.29,-635.65"/>
<text text-anchor="middle" x="147.67" y="-633.3" font-family="Sans-Serif" font-size="13.00" fill="#2d3436">Invoke</text>
</g>
<!-- 1580ae5df1ab4f5ebd8c6b493340954f -->
<g id="node3" class="node">
<title>1580ae5df1ab4f5ebd8c6b493340954f</title>
<image xlink:href="/Users/hamadkhawaja/Developer/diagram-ai/venv/lib/python3.13/site-packages/resources/aws/security/identity-and-access-management-iam-role.png" width="100.8px" height="100.8px" preserveAspectRatio="xMinYMin meet" x="435.6" y="-682.55"/>
<text text-anchor="middle" x="486" y="-564.9" font-family="Sans-Serif" font-size="13.00" fill="#2d3436">Lambda IAM Role</text>
</g>
<!-- 8a17d215d7e04aa086d6b41e9f4230bf&#45;&gt;1580ae5df1ab4f5ebd8c6b493340954f -->
<g id="edge1" class="edge">
<title>8a17d215d7e04aa086d6b41e9f4230bf&#45;&gt;1580ae5df1ab4f5ebd8c6b493340954f</title>
<path fill="none" stroke="#7b8894" stroke-dasharray="5,2" d="M306.7,-632.15C306.7,-632.15 435.83,-632.15 435.83,-632.15"/>
<polygon fill="#7b8894" stroke="#7b8894" points="306.7,-628.65 296.7,-632.15 306.7,-635.65 306.7,-628.65"/>
<text text-anchor="middle" x="365.47" y="-633.3" font-family="Sans-Serif" font-size="13.00" fill="#2d3436">assume role</text>
</g>
<!-- 20df022eb8194fbf811cc1cf0dcee5b4 -->
<g id="node4" class="node">
<title>20df022eb8194fbf811cc1cf0dcee5b4</title>
<image xlink:href="/Users/hamadkhawaja/Developer/diagram-ai/venv/lib/python3.13/site-packages/resources/aws/database/dynamodb.png" width="100.8px" height="100.8px" preserveAspectRatio="xMinYMin meet" x="435.6" y="-502.55"/>
<text text-anchor="middle" x="486" y="-384.9" font-family="Sans-Serif" font-size="13.00" fill="#2d3436">DynamoDB Table</text>
</g>
<!-- 8a17d215d7e04aa086d6b41e9f4230bf&#45;&gt;20df022eb8194fbf811cc1cf0dcee5b4 -->
<g id="edge3" class="edge">
<title>8a17d215d7e04aa086d6b41e9f4230bf&#45;&gt;20df022eb8194fbf811cc1cf0dcee5b4</title>
<path fill="none" stroke="#7b8894" d="M270.4,-563.84C270.4,-512.92 270.4,-452.15 270.4,-452.15 270.4,-452.15 424.21,-452.15 424.21,-452.15"/>
<polygon fill="#7b8894" stroke="#7b8894" points="424.21,-455.65 434.21,-452.15 424.21,-448.65 424.21,-455.65"/>
<text text-anchor="middle" x="365.47" y="-453.3" font-family="Sans-Serif" font-size="13.00" fill="#2d3436">Read/Write</text>
</g>
<!-- 60e3c0da6ecb4f0291443275393836b9 -->
<g id="node5" class="node">
<title>60e3c0da6ecb4f0291443275393836b9</title>
<image xlink:href="/Users/hamadkhawaja/Developer/diagram-ai/venv/lib/python3.13/site-packages/resources/aws/storage/simple-storage-service-s3.png" width="100.8px" height="100.8px" preserveAspectRatio="xMinYMin meet" x="435.6" y="-322.55"/>
<text text-anchor="middle" x="486" y="-204.9" font-family="Sans-Serif" font-size="13.00" fill="#2d3436">S3 Bucket</text>
</g>
<!-- 8a17d215d7e04aa086d6b41e9f4230bf&#45;&gt;60e3c0da6ecb4f0291443275393836b9 -->
<g id="edge4" class="edge">
<title>8a17d215d7e04aa086d6b41e9f4230bf&#45;&gt;60e3c0da6ecb4f0291443275393836b9</title>
<path fill="none" stroke="#7b8894" d="M245.4,-564.01C245.4,-459.65 245.4,-272.15 245.4,-272.15 245.4,-272.15 424.34,-272.15 424.34,-272.15"/>
<polygon fill="#7b8894" stroke="#7b8894" points="424.34,-275.65 434.34,-272.15 424.34,-268.65 424.34,-275.65"/>
<text text-anchor="middle" x="365.47" y="-273.3" font-family="Sans-Serif" font-size="13.00" fill="#2d3436">Store/Retrieve</text>
</g>
<!-- 3353d1c2560c472ba81145865969c844 -->
<g id="node6" class="node">
<title>3353d1c2560c472ba81145865969c844</title>
<image xlink:href="/Users/hamadkhawaja/Developer/diagram-ai/venv/lib/python3.13/site-packages/resources/aws/management/cloudwatch.png" width="100.8px" height="100.8px" preserveAspectRatio="xMinYMin meet" x="435.6" y="-142.55"/>
<text text-anchor="middle" x="486" y="-24.9" font-family="Sans-Serif" font-size="13.00" fill="#2d3436">CloudWatch Logs</text>
</g>
<!-- 8a17d215d7e04aa086d6b41e9f4230bf&#45;&gt;3353d1c2560c472ba81145865969c844 -->
<g id="edge5" class="edge">
<title>8a17d215d7e04aa086d6b41e9f4230bf&#45;&gt;3353d1c2560c472ba81145865969c844</title>
<path fill="none" stroke="#7b8894" d="M219.4,-563.76C219.4,-418.45 219.4,-92.15 219.4,-92.15 219.4,-92.15 424.34,-92.15 424.34,-92.15"/>
<polygon fill="#7b8894" stroke="#7b8894" points="424.34,-95.65 434.34,-92.15 424.34,-88.65 424.34,-95.65"/>
<text text-anchor="middle" x="365.47" y="-93.3" font-family="Sans-Serif" font-size="13.00" fill="#2d3436">Logs</text>
</g>
</g>
</svg>
