<?xml version="1.0" encoding="UTF-8" standalone="no"?>
<!DOCTYPE svg PUBLIC "-//W3C//DTD SVG 1.1//EN"
 "http://www.w3.org/Graphics/SVG/1.1/DTD/svg11.dtd">
<!-- Generated by graphviz version 12.2.1 (20241206.2353)
 -->
<!-- Title: Azure Multi&#45;Region Application Architecture Pages: 1 -->
<svg width="1475pt" height="1430pt"
 viewBox="0.00 0.00 1475.00 1430.10" xmlns="http://www.w3.org/2000/svg" xmlns:xlink="http://www.w3.org/1999/xlink">
<g id="graph0" class="graph" transform="scale(1 1) rotate(0) translate(144 1286.1)">
<title>Azure Multi&#45;Region Application Architecture</title>
<polygon fill="white" stroke="none" points="-144,144 -144,-1286.1 1331,-1286.1 1331,144 -144,144"/>
<text text-anchor="middle" x="593.5" y="-5.5" font-family="Sans-Serif" font-size="15.00" fill="#2d3436">Azure Multi&#45;Region Application Architecture</text>
<g id="clust1" class="cluster">
<title>cluster_East US (Primary Region)</title>
<path fill="#e5f5fd" stroke="#aeb6be" d="M489,-293.65C489,-293.65 725,-293.65 725,-293.65 731,-293.65 737,-299.65 737,-305.65 737,-305.65 737,-1122.1 737,-1122.1 737,-1128.1 731,-1134.1 725,-1134.1 725,-1134.1 489,-1134.1 489,-1134.1 483,-1134.1 477,-1128.1 477,-1122.1 477,-1122.1 477,-305.65 477,-305.65 477,-299.65 483,-293.65 489,-293.65"/>
<text text-anchor="middle" x="554" y="-1118.7" font-family="Sans-Serif" font-size="12.00" fill="#2d3436">East US (Primary Region)</text>
</g>
<g id="clust2" class="cluster">
<title>cluster_App Tier</title>
<path fill="#ebf3e7" stroke="#aeb6be" d="M625,-543.05C625,-543.05 717,-543.05 717,-543.05 723,-543.05 729,-549.05 729,-555.05 729,-555.05 729,-704.6 729,-704.6 729,-710.6 723,-716.6 717,-716.6 717,-716.6 625,-716.6 625,-716.6 619,-716.6 613,-710.6 613,-704.6 613,-704.6 613,-555.05 613,-555.05 613,-549.05 619,-543.05 625,-543.05"/>
<text text-anchor="middle" x="643.12" y="-701.2" font-family="Sans-Serif" font-size="12.00" fill="#2d3436">App Tier</text>
</g>
<g id="clust3" class="cluster">
<title>cluster_West Europe (Secondary Region)</title>
<path fill="#e5f5fd" stroke="#aeb6be" d="M20,-31.75C20,-31.75 256,-31.75 256,-31.75 262,-31.75 268,-37.75 268,-43.75 268,-43.75 268,-906.15 268,-906.15 268,-912.15 262,-918.15 256,-918.15 256,-918.15 20,-918.15 20,-918.15 14,-918.15 8,-912.15 8,-906.15 8,-906.15 8,-43.75 8,-43.75 8,-37.75 14,-31.75 20,-31.75"/>
<text text-anchor="middle" x="105.62" y="-902.75" font-family="Sans-Serif" font-size="12.00" fill="#2d3436">West Europe (Secondary Region)</text>
</g>
<g id="clust4" class="cluster">
<title>cluster_App Tier</title>
<path fill="#ebf3e7" stroke="#aeb6be" d="M28,-322.45C28,-322.45 120,-322.45 120,-322.45 126,-322.45 132,-328.45 132,-334.45 132,-334.45 132,-484 132,-484 132,-490 126,-496 120,-496 120,-496 28,-496 28,-496 22,-496 16,-490 16,-484 16,-484 16,-334.45 16,-334.45 16,-328.45 22,-322.45 28,-322.45"/>
<text text-anchor="middle" x="46.12" y="-480.6" font-family="Sans-Serif" font-size="12.00" fill="#2d3436">App Tier</text>
</g>
<g id="clust5" class="cluster">
<title>cluster_Southeast Asia (Secondary Region)</title>
<path fill="#e5f5fd" stroke="#aeb6be" d="M931,-31.75C931,-31.75 1167,-31.75 1167,-31.75 1173,-31.75 1179,-37.75 1179,-43.75 1179,-43.75 1179,-906.15 1179,-906.15 1179,-912.15 1173,-918.15 1167,-918.15 1167,-918.15 931,-918.15 931,-918.15 925,-918.15 919,-912.15 919,-906.15 919,-906.15 919,-43.75 919,-43.75 919,-37.75 925,-31.75 931,-31.75"/>
<text text-anchor="middle" x="1022.25" y="-902.75" font-family="Sans-Serif" font-size="12.00" fill="#2d3436">Southeast Asia (Secondary Region)</text>
</g>
<g id="clust6" class="cluster">
<title>cluster_App Tier</title>
<path fill="#ebf3e7" stroke="#aeb6be" d="M1045,-322.45C1045,-322.45 1137,-322.45 1137,-322.45 1143,-322.45 1149,-328.45 1149,-334.45 1149,-334.45 1149,-484 1149,-484 1149,-490 1143,-496 1137,-496 1137,-496 1045,-496 1045,-496 1039,-496 1033,-490 1033,-484 1033,-484 1033,-334.45 1033,-334.45 1033,-328.45 1039,-322.45 1045,-322.45"/>
<text text-anchor="middle" x="1063.12" y="-480.6" font-family="Sans-Serif" font-size="12.00" fill="#2d3436">App Tier</text>
</g>
<!-- df9df8e7575248b281acc137521ef134 -->
<g id="node1" class="node">
<title>df9df8e7575248b281acc137521ef134</title>
<image xlink:href="/opt/homebrew/lib/python3.13/site-packages/resources/azure/network/traffic-manager-profiles.png" width="100.8px" height="100.8px" preserveAspectRatio="xMinYMin meet" x="765.6" y="-1087.35"/>
<text text-anchor="middle" x="816" y="-968.8" font-family="Sans-Serif" font-size="13.00" fill="#2d3436">Azure Traffic Manager</text>
<text text-anchor="middle" x="816" y="-955.3" font-family="Sans-Serif" font-size="13.00" fill="#2d3436">(DNS&#45;based Routing)</text>
</g>
<!-- 4cac1f94cce54c0f92e74a8765e55cd2 -->
<g id="node3" class="node">
<title>4cac1f94cce54c0f92e74a8765e55cd2</title>
<image xlink:href="/opt/homebrew/lib/python3.13/site-packages/resources/azure/network/application-gateway.png" width="100.8px" height="100.8px" preserveAspectRatio="xMinYMin meet" x="620.6" y="-871.4"/>
<text text-anchor="middle" x="671" y="-753.75" font-family="Sans-Serif" font-size="13.00" fill="#2d3436">App Gateway</text>
</g>
<!-- df9df8e7575248b281acc137521ef134&#45;&gt;4cac1f94cce54c0f92e74a8765e55cd2 -->
<g id="edge13" class="edge">
<title>df9df8e7575248b281acc137521ef134&#45;&gt;4cac1f94cce54c0f92e74a8765e55cd2</title>
<path fill="none" stroke="#7b8894" d="M765.7,-958.75C729.78,-958.75 687.8,-958.75 687.8,-958.75 687.8,-958.75 687.8,-900.58 687.8,-900.58"/>
<polygon fill="#7b8894" stroke="#7b8894" points="691.3,-900.58 687.8,-890.58 684.3,-900.58 691.3,-900.58"/>
</g>
<!-- aac7a8e320244beb95b85d505c01e361 -->
<g id="node8" class="node">
<title>aac7a8e320244beb95b85d505c01e361</title>
<image xlink:href="/opt/homebrew/lib/python3.13/site-packages/resources/azure/network/application-gateway.png" width="100.8px" height="100.8px" preserveAspectRatio="xMinYMin meet" x="125.6" y="-669.85"/>
<text text-anchor="middle" x="176" y="-552.2" font-family="Sans-Serif" font-size="13.00" fill="#2d3436">App Gateway</text>
</g>
<!-- df9df8e7575248b281acc137521ef134&#45;&gt;aac7a8e320244beb95b85d505c01e361 -->
<g id="edge14" class="edge">
<title>df9df8e7575248b281acc137521ef134&#45;&gt;aac7a8e320244beb95b85d505c01e361</title>
<path fill="none" stroke="#7b8894" d="M765.79,-963.75C702.82,-963.75 603,-963.75 603,-963.75 603,-963.75 603,-619.75 603,-619.75 603,-619.75 237.75,-619.75 237.75,-619.75"/>
<polygon fill="#7b8894" stroke="#7b8894" points="237.75,-616.25 227.75,-619.75 237.75,-623.25 237.75,-616.25"/>
</g>
<!-- ec1d35be16ef4c19b8c5eb5c4a2309fb -->
<g id="node13" class="node">
<title>ec1d35be16ef4c19b8c5eb5c4a2309fb</title>
<image xlink:href="/opt/homebrew/lib/python3.13/site-packages/resources/azure/network/application-gateway.png" width="100.8px" height="100.8px" preserveAspectRatio="xMinYMin meet" x="1040.6" y="-669.85"/>
<text text-anchor="middle" x="1091" y="-552.2" font-family="Sans-Serif" font-size="13.00" fill="#2d3436">App Gateway</text>
</g>
<!-- df9df8e7575248b281acc137521ef134&#45;&gt;ec1d35be16ef4c19b8c5eb5c4a2309fb -->
<g id="edge15" class="edge">
<title>df9df8e7575248b281acc137521ef134&#45;&gt;ec1d35be16ef4c19b8c5eb5c4a2309fb</title>
<path fill="none" stroke="#7b8894" d="M816,-954.15C816,-826.64 816,-596.75 816,-596.75 816,-596.75 1029.37,-596.75 1029.37,-596.75"/>
<polygon fill="#7b8894" stroke="#7b8894" points="1029.37,-600.25 1039.37,-596.75 1029.37,-593.25 1029.37,-600.25"/>
</g>
<!-- 4154280aac4047fda4c1a21c755d1abf -->
<g id="node2" class="node">
<title>4154280aac4047fda4c1a21c755d1abf</title>
<image xlink:href="/opt/homebrew/lib/python3.13/site-packages/resources/azure/network/virtual-networks.png" width="100.8px" height="100.8px" preserveAspectRatio="xMinYMin meet" x="620.6" y="-1087.35"/>
<text text-anchor="middle" x="671" y="-969.7" font-family="Sans-Serif" font-size="13.00" fill="#2d3436">VNet East US</text>
</g>
<!-- 4154280aac4047fda4c1a21c755d1abf&#45;&gt;4cac1f94cce54c0f92e74a8765e55cd2 -->
<g id="edge1" class="edge">
<title>4154280aac4047fda4c1a21c755d1abf&#45;&gt;4cac1f94cce54c0f92e74a8765e55cd2</title>
<path fill="none" stroke="#7b8894" d="M654.2,-968.62C654.2,-968.62 654.2,-900.77 654.2,-900.77"/>
<polygon fill="#7b8894" stroke="#7b8894" points="657.7,-900.77 654.2,-890.77 650.7,-900.77 657.7,-900.77"/>
</g>
<!-- 2d641c41bb054973b2ba31d431ef6b57 -->
<g id="node4" class="node">
<title>2d641c41bb054973b2ba31d431ef6b57</title>
<image xlink:href="/opt/homebrew/lib/python3.13/site-packages/resources/azure/compute/vm-scale-set.png" width="100.8px" height="100.8px" preserveAspectRatio="xMinYMin meet" x="620.6" y="-669.85"/>
<text text-anchor="middle" x="671" y="-552.2" font-family="Sans-Serif" font-size="13.00" fill="#2d3436">VM Scale Set</text>
</g>
<!-- 4cac1f94cce54c0f92e74a8765e55cd2&#45;&gt;2d641c41bb054973b2ba31d431ef6b57 -->
<g id="edge2" class="edge">
<title>4cac1f94cce54c0f92e74a8765e55cd2&#45;&gt;2d641c41bb054973b2ba31d431ef6b57</title>
<path fill="none" stroke="#7b8894" d="M671,-752.76C671,-752.76 671,-699.13 671,-699.13"/>
<polygon fill="#7b8894" stroke="#7b8894" points="674.5,-699.13 671,-689.13 667.5,-699.13 674.5,-699.13"/>
</g>
<!-- a10e574b476d4b0ab8639f37090c287d -->
<g id="node5" class="node">
<title>a10e574b476d4b0ab8639f37090c287d</title>
<image xlink:href="/opt/homebrew/lib/python3.13/site-packages/resources/azure/database/sql-databases.png" width="100.8px" height="100.8px" preserveAspectRatio="xMinYMin meet" x="484.6" y="-449.25"/>
<text text-anchor="middle" x="535" y="-329.8" font-family="Sans-Serif" font-size="13.00" fill="#2d3436">SQL DB</text>
<text text-anchor="middle" x="535" y="-316.3" font-family="Sans-Serif" font-size="13.00" fill="#2d3436">Primary</text>
<text text-anchor="middle" x="535" y="-302.8" font-family="Sans-Serif" font-size="13.00" fill="#2d3436">Zone&#45;Redundant</text>
</g>
<!-- 2d641c41bb054973b2ba31d431ef6b57&#45;&gt;a10e574b476d4b0ab8639f37090c287d -->
<g id="edge3" class="edge">
<title>2d641c41bb054973b2ba31d431ef6b57&#45;&gt;a10e574b476d4b0ab8639f37090c287d</title>
<path fill="none" stroke="#7b8894" d="M624.6,-551.42C624.6,-519.66 624.6,-488.75 624.6,-488.75 624.6,-488.75 596.81,-488.75 596.81,-488.75"/>
<polygon fill="#7b8894" stroke="#7b8894" points="596.81,-485.25 586.81,-488.75 596.81,-492.25 596.81,-485.25"/>
</g>
<!-- 078f281197e045d98a83af510af21c52 -->
<g id="node6" class="node">
<title>078f281197e045d98a83af510af21c52</title>
<image xlink:href="/opt/homebrew/lib/python3.13/site-packages/resources/azure/storage/blob-storage.png" width="100.8px" height="100.8px" preserveAspectRatio="xMinYMin meet" x="628.6" y="-449.25"/>
<text text-anchor="middle" x="679" y="-330.7" font-family="Sans-Serif" font-size="13.00" fill="#2d3436">Blob Storage</text>
<text text-anchor="middle" x="679" y="-317.2" font-family="Sans-Serif" font-size="13.00" fill="#2d3436">RA&#45;GRS</text>
</g>
<!-- 2d641c41bb054973b2ba31d431ef6b57&#45;&gt;078f281197e045d98a83af510af21c52 -->
<g id="edge4" class="edge">
<title>2d641c41bb054973b2ba31d431ef6b57&#45;&gt;078f281197e045d98a83af510af21c52</title>
<path fill="none" stroke="#7b8894" d="M675,-551.16C675,-551.16 675,-493.07 675,-493.07"/>
<polygon fill="#7b8894" stroke="#7b8894" points="678.5,-493.07 675,-483.07 671.5,-493.07 678.5,-493.07"/>
</g>
<!-- 38b9167db7764faba6d93a2dfa76dcb9 -->
<g id="node10" class="node">
<title>38b9167db7764faba6d93a2dfa76dcb9</title>
<image xlink:href="/opt/homebrew/lib/python3.13/site-packages/resources/azure/database/sql-databases.png" width="100.8px" height="100.8px" preserveAspectRatio="xMinYMin meet" x="15.6" y="-187.35"/>
<text text-anchor="middle" x="66" y="-67.9" font-family="Sans-Serif" font-size="13.00" fill="#2d3436">SQL DB</text>
<text text-anchor="middle" x="66" y="-54.4" font-family="Sans-Serif" font-size="13.00" fill="#2d3436">Secondary</text>
<text text-anchor="middle" x="66" y="-40.9" font-family="Sans-Serif" font-size="13.00" fill="#2d3436">Zone&#45;Redundant</text>
</g>
<!-- a10e574b476d4b0ab8639f37090c287d&#45;&gt;38b9167db7764faba6d93a2dfa76dcb9 -->
<g id="edge16" class="edge">
<title>a10e574b476d4b0ab8639f37090c287d&#45;&gt;38b9167db7764faba6d93a2dfa76dcb9</title>
<path fill="none" stroke="blue" stroke-dasharray="5,2" d="M524.92,-301.87C524.92,-263.68 524.92,-228.75 524.92,-228.75 524.92,-228.75 127.5,-228.75 127.5,-228.75"/>
<polygon fill="blue" stroke="blue" points="127.5,-225.25 117.5,-228.75 127.5,-232.25 127.5,-225.25"/>
<text text-anchor="middle" x="326.25" y="-262.3" font-family="Sans-Serif" font-size="13.00" fill="#2d3436">Active Geo&#45;Replication</text>
</g>
<!-- ec2d9693f2de4840a22698c57d296e12 -->
<g id="node15" class="node">
<title>ec2d9693f2de4840a22698c57d296e12</title>
<image xlink:href="/opt/homebrew/lib/python3.13/site-packages/resources/azure/database/sql-databases.png" width="100.8px" height="100.8px" preserveAspectRatio="xMinYMin meet" x="926.6" y="-187.35"/>
<text text-anchor="middle" x="977" y="-67.9" font-family="Sans-Serif" font-size="13.00" fill="#2d3436">SQL DB</text>
<text text-anchor="middle" x="977" y="-54.4" font-family="Sans-Serif" font-size="13.00" fill="#2d3436">Secondary</text>
<text text-anchor="middle" x="977" y="-40.9" font-family="Sans-Serif" font-size="13.00" fill="#2d3436">Zone&#45;Redundant</text>
</g>
<!-- a10e574b476d4b0ab8639f37090c287d&#45;&gt;ec2d9693f2de4840a22698c57d296e12 -->
<g id="edge17" class="edge">
<title>a10e574b476d4b0ab8639f37090c287d&#45;&gt;ec2d9693f2de4840a22698c57d296e12</title>
<path fill="none" stroke="blue" stroke-dasharray="5,2" d="M545.08,-301.79C545.08,-260.96 545.08,-222.75 545.08,-222.75 545.08,-222.75 915.09,-222.75 915.09,-222.75"/>
<polygon fill="blue" stroke="blue" points="915.09,-226.25 925.09,-222.75 915.09,-219.25 915.09,-226.25"/>
<text text-anchor="middle" x="511.25" y="-262.3" font-family="Sans-Serif" font-size="13.00" fill="#2d3436">Active Geo&#45;Replication</text>
</g>
<!-- f50c2860526d462fb04cdfb91f0e53df -->
<g id="node11" class="node">
<title>f50c2860526d462fb04cdfb91f0e53df</title>
<image xlink:href="/opt/homebrew/lib/python3.13/site-packages/resources/azure/storage/blob-storage.png" width="100.8px" height="100.8px" preserveAspectRatio="xMinYMin meet" x="159.6" y="-187.35"/>
<text text-anchor="middle" x="210" y="-68.8" font-family="Sans-Serif" font-size="13.00" fill="#2d3436">Blob Storage</text>
<text text-anchor="middle" x="210" y="-55.3" font-family="Sans-Serif" font-size="13.00" fill="#2d3436">RA&#45;GRS</text>
</g>
<!-- 078f281197e045d98a83af510af21c52&#45;&gt;f50c2860526d462fb04cdfb91f0e53df -->
<g id="edge18" class="edge">
<title>078f281197e045d98a83af510af21c52&#45;&gt;f50c2860526d462fb04cdfb91f0e53df</title>
<path fill="none" stroke="purple" stroke-dasharray="1,5" d="M679,-316.28C679,-239.45 679,-136.75 679,-136.75 679,-136.75 271.7,-136.75 271.7,-136.75"/>
<polygon fill="purple" stroke="purple" points="271.7,-133.25 261.7,-136.75 271.7,-140.25 271.7,-133.25"/>
<text text-anchor="middle" x="850.12" y="-262.3" font-family="Sans-Serif" font-size="13.00" fill="#2d3436">RA&#45;GRS Replication</text>
</g>
<!-- 4813699f148f4f0690d756336c367634 -->
<g id="node16" class="node">
<title>4813699f148f4f0690d756336c367634</title>
<image xlink:href="/opt/homebrew/lib/python3.13/site-packages/resources/azure/storage/blob-storage.png" width="100.8px" height="100.8px" preserveAspectRatio="xMinYMin meet" x="1070.6" y="-187.35"/>
<text text-anchor="middle" x="1121" y="-68.8" font-family="Sans-Serif" font-size="13.00" fill="#2d3436">Blob Storage</text>
<text text-anchor="middle" x="1121" y="-55.3" font-family="Sans-Serif" font-size="13.00" fill="#2d3436">RA&#45;GRS</text>
</g>
<!-- 078f281197e045d98a83af510af21c52&#45;&gt;4813699f148f4f0690d756336c367634 -->
<g id="edge19" class="edge">
<title>078f281197e045d98a83af510af21c52&#45;&gt;4813699f148f4f0690d756336c367634</title>
<path fill="none" stroke="purple" stroke-dasharray="1,5" d="M729.08,-323.75C839.51,-323.75 1094.2,-323.75 1094.2,-323.75 1094.2,-323.75 1094.2,-231.21 1094.2,-231.21"/>
<polygon fill="purple" stroke="purple" points="1097.7,-231.21 1094.2,-221.21 1090.7,-231.21 1097.7,-231.21"/>
<text text-anchor="middle" x="1022.12" y="-262.3" font-family="Sans-Serif" font-size="13.00" fill="#2d3436">RA&#45;GRS Replication</text>
</g>
<!-- 9d1c88f9efa94521bd107a986784cfe7 -->
<g id="node7" class="node">
<title>9d1c88f9efa94521bd107a986784cfe7</title>
<image xlink:href="/opt/homebrew/lib/python3.13/site-packages/resources/azure/network/virtual-networks.png" width="100.8px" height="100.8px" preserveAspectRatio="xMinYMin meet" x="125.6" y="-871.4"/>
<text text-anchor="middle" x="176" y="-753.75" font-family="Sans-Serif" font-size="13.00" fill="#2d3436">VNet West Europe</text>
</g>
<!-- 9d1c88f9efa94521bd107a986784cfe7&#45;&gt;aac7a8e320244beb95b85d505c01e361 -->
<g id="edge5" class="edge">
<title>9d1c88f9efa94521bd107a986784cfe7&#45;&gt;aac7a8e320244beb95b85d505c01e361</title>
<path fill="none" stroke="#7b8894" d="M176,-752.76C176,-752.76 176,-699.13 176,-699.13"/>
<polygon fill="#7b8894" stroke="#7b8894" points="179.5,-699.13 176,-689.13 172.5,-699.13 179.5,-699.13"/>
</g>
<!-- 6a05a853835643758c7a1f11e48bf0b5 -->
<g id="node9" class="node">
<title>6a05a853835643758c7a1f11e48bf0b5</title>
<image xlink:href="/opt/homebrew/lib/python3.13/site-packages/resources/azure/compute/vm-scale-set.png" width="100.8px" height="100.8px" preserveAspectRatio="xMinYMin meet" x="23.6" y="-449.25"/>
<text text-anchor="middle" x="74" y="-331.6" font-family="Sans-Serif" font-size="13.00" fill="#2d3436">VM Scale Set</text>
</g>
<!-- aac7a8e320244beb95b85d505c01e361&#45;&gt;6a05a853835643758c7a1f11e48bf0b5 -->
<g id="edge6" class="edge">
<title>aac7a8e320244beb95b85d505c01e361&#45;&gt;6a05a853835643758c7a1f11e48bf0b5</title>
<path fill="none" stroke="#7b8894" d="M142.6,-551.13C142.6,-486.31 142.6,-398.75 142.6,-398.75 142.6,-398.75 135.73,-398.75 135.73,-398.75"/>
<polygon fill="#7b8894" stroke="#7b8894" points="135.73,-395.25 125.73,-398.75 135.73,-402.25 135.73,-395.25"/>
</g>
<!-- 6a05a853835643758c7a1f11e48bf0b5&#45;&gt;38b9167db7764faba6d93a2dfa76dcb9 -->
<g id="edge7" class="edge">
<title>6a05a853835643758c7a1f11e48bf0b5&#45;&gt;38b9167db7764faba6d93a2dfa76dcb9</title>
<path fill="none" stroke="#7b8894" d="M70,-330.72C70,-330.72 70,-245.34 70,-245.34"/>
<polygon fill="#7b8894" stroke="#7b8894" points="73.5,-245.34 70,-235.34 66.5,-245.34 73.5,-245.34"/>
</g>
<!-- 6a05a853835643758c7a1f11e48bf0b5&#45;&gt;f50c2860526d462fb04cdfb91f0e53df -->
<g id="edge8" class="edge">
<title>6a05a853835643758c7a1f11e48bf0b5&#45;&gt;f50c2860526d462fb04cdfb91f0e53df</title>
<path fill="none" stroke="#7b8894" d="M120.4,-330.67C120.4,-253.01 120.4,-136.75 120.4,-136.75 120.4,-136.75 148.19,-136.75 148.19,-136.75"/>
<polygon fill="#7b8894" stroke="#7b8894" points="148.19,-140.25 158.19,-136.75 148.19,-133.25 148.19,-140.25"/>
</g>
<!-- 38b9167db7764faba6d93a2dfa76dcb9&#45;&gt;a10e574b476d4b0ab8639f37090c287d -->
<g id="edge20" class="edge">
<title>38b9167db7764faba6d93a2dfa76dcb9&#45;&gt;a10e574b476d4b0ab8639f37090c287d</title>
<path fill="none" stroke="red" stroke-dasharray="5,2" d="M116.33,-231.75C231.58,-231.75 504.76,-231.75 504.76,-231.75 504.76,-231.75 504.76,-290.62 504.76,-290.62"/>
<polygon fill="red" stroke="red" points="501.26,-290.62 504.76,-300.62 508.26,-290.62 501.26,-290.62"/>
<text text-anchor="middle" x="153.25" y="-262.3" font-family="Sans-Serif" font-size="13.00" fill="#2d3436">Failover Promotion</text>
</g>
<!-- e3842c10f157494fa601d55a1d573036 -->
<g id="node12" class="node">
<title>e3842c10f157494fa601d55a1d573036</title>
<image xlink:href="/opt/homebrew/lib/python3.13/site-packages/resources/azure/network/virtual-networks.png" width="100.8px" height="100.8px" preserveAspectRatio="xMinYMin meet" x="926.6" y="-871.4"/>
<text text-anchor="middle" x="977" y="-753.75" font-family="Sans-Serif" font-size="13.00" fill="#2d3436">VNet SE Asia</text>
</g>
<!-- e3842c10f157494fa601d55a1d573036&#45;&gt;ec1d35be16ef4c19b8c5eb5c4a2309fb -->
<g id="edge9" class="edge">
<title>e3842c10f157494fa601d55a1d573036&#45;&gt;ec1d35be16ef4c19b8c5eb5c4a2309fb</title>
<path fill="none" stroke="#7b8894" d="M977,-752.72C977,-702.07 977,-641.75 977,-641.75 977,-641.75 1029.15,-641.75 1029.15,-641.75"/>
<polygon fill="#7b8894" stroke="#7b8894" points="1029.15,-645.25 1039.15,-641.75 1029.15,-638.25 1029.15,-645.25"/>
</g>
<!-- f0a3febcdb2c4330854b25d6dbb57186 -->
<g id="node14" class="node">
<title>f0a3febcdb2c4330854b25d6dbb57186</title>
<image xlink:href="/opt/homebrew/lib/python3.13/site-packages/resources/azure/compute/vm-scale-set.png" width="100.8px" height="100.8px" preserveAspectRatio="xMinYMin meet" x="1040.6" y="-449.25"/>
<text text-anchor="middle" x="1091" y="-331.6" font-family="Sans-Serif" font-size="13.00" fill="#2d3436">VM Scale Set</text>
</g>
<!-- ec1d35be16ef4c19b8c5eb5c4a2309fb&#45;&gt;f0a3febcdb2c4330854b25d6dbb57186 -->
<g id="edge10" class="edge">
<title>ec1d35be16ef4c19b8c5eb5c4a2309fb&#45;&gt;f0a3febcdb2c4330854b25d6dbb57186</title>
<path fill="none" stroke="#7b8894" d="M1091,-551.16C1091,-551.16 1091,-478.71 1091,-478.71"/>
<polygon fill="#7b8894" stroke="#7b8894" points="1094.5,-478.71 1091,-468.71 1087.5,-478.71 1094.5,-478.71"/>
</g>
<!-- f0a3febcdb2c4330854b25d6dbb57186&#45;&gt;ec2d9693f2de4840a22698c57d296e12 -->
<g id="edge11" class="edge">
<title>f0a3febcdb2c4330854b25d6dbb57186&#45;&gt;ec2d9693f2de4840a22698c57d296e12</title>
<path fill="none" stroke="#7b8894" d="M1055.6,-330.83C1055.6,-282.73 1055.6,-226.75 1055.6,-226.75 1055.6,-226.75 1038.74,-226.75 1038.74,-226.75"/>
<polygon fill="#7b8894" stroke="#7b8894" points="1038.74,-223.25 1028.74,-226.75 1038.74,-230.25 1038.74,-223.25"/>
</g>
<!-- f0a3febcdb2c4330854b25d6dbb57186&#45;&gt;4813699f148f4f0690d756336c367634 -->
<g id="edge12" class="edge">
<title>f0a3febcdb2c4330854b25d6dbb57186&#45;&gt;4813699f148f4f0690d756336c367634</title>
<path fill="none" stroke="#7b8894" d="M1117.8,-330.72C1117.8,-330.72 1117.8,-231.2 1117.8,-231.2"/>
<polygon fill="#7b8894" stroke="#7b8894" points="1121.3,-231.2 1117.8,-221.2 1114.3,-231.2 1121.3,-231.2"/>
</g>
<!-- ec2d9693f2de4840a22698c57d296e12&#45;&gt;a10e574b476d4b0ab8639f37090c287d -->
<g id="edge21" class="edge">
<title>ec2d9693f2de4840a22698c57d296e12&#45;&gt;a10e574b476d4b0ab8639f37090c287d</title>
<path fill="none" stroke="red" stroke-dasharray="5,2" d="M926.92,-225.75C817.19,-225.75 565.24,-225.75 565.24,-225.75 565.24,-225.75 565.24,-290.16 565.24,-290.16"/>
<polygon fill="red" stroke="red" points="561.74,-290.16 565.24,-300.16 568.74,-290.16 561.74,-290.16"/>
<text text-anchor="middle" x="684.25" y="-262.3" font-family="Sans-Serif" font-size="13.00" fill="#2d3436">Failover Promotion</text>
</g>
</g>
</svg>
