<?xml version="1.0" encoding="UTF-8" standalone="no"?>
<!DOCTYPE svg PUBLIC "-//W3C//DTD SVG 1.1//EN"
 "http://www.w3.org/Graphics/SVG/1.1/DTD/svg11.dtd">
<!-- Generated by graphviz version 12.2.1 (20241206.2353)
 -->
<!-- Title: GCP Three&#45;Tier Web Architecture
Global Load Balancer routes traffic to Compute Engine VMs in a VPC, with Cloud SQL and Cloud Storage for data. Pages: 1 -->
<svg width="1068pt" height="857pt"
 viewBox="0.00 0.00 1067.50 857.40" xmlns="http://www.w3.org/2000/svg" xmlns:xlink="http://www.w3.org/1999/xlink">
<g id="graph0" class="graph" transform="scale(1 1) rotate(0) translate(144 713.4)">
<title>GCP Three&#45;Tier Web Architecture
Global Load Balancer routes traffic to Compute Engine VMs in a VPC, with Cloud SQL and Cloud Storage for data.</title>
<polygon fill="white" stroke="none" points="-144,144 -144,-713.4 923.5,-713.4 923.5,144 -144,144"/>
<text text-anchor="middle" x="389.75" y="-21.25" font-family="Sans-Serif" font-size="15.00" fill="#2d3436">GCP Three&#45;Tier Web Architecture</text>
<text text-anchor="middle" x="389.75" y="-5.5" font-family="Sans-Serif" font-size="15.00" fill="#2d3436">Global Load Balancer routes traffic to Compute Engine VMs in a VPC, with Cloud SQL and Cloud Storage for data.</text>
<g id="clust1" class="cluster">
<title>cluster_VPC web&#45;vpc</title>
<path fill="#e5f5fd" stroke="#aeb6be" d="M263.75,-214.3C263.75,-214.3 515.75,-214.3 515.75,-214.3 521.75,-214.3 527.75,-220.3 527.75,-226.3 527.75,-226.3 527.75,-412.6 527.75,-412.6 527.75,-418.6 521.75,-424.6 515.75,-424.6 515.75,-424.6 263.75,-424.6 263.75,-424.6 257.75,-424.6 251.75,-418.6 251.75,-412.6 251.75,-412.6 251.75,-226.3 251.75,-226.3 251.75,-220.3 257.75,-214.3 263.75,-214.3"/>
<text text-anchor="middle" x="296.5" y="-409.2" font-family="Sans-Serif" font-size="12.00" fill="#2d3436">VPC web&#45;vpc</text>
</g>
<g id="clust2" class="cluster">
<title>cluster_Subnet web&#45;subnet</title>
<path fill="#ebf3e7" stroke="#aeb6be" d="M271.75,-222.3C271.75,-222.3 507.75,-222.3 507.75,-222.3 513.75,-222.3 519.75,-228.3 519.75,-234.3 519.75,-234.3 519.75,-383.85 519.75,-383.85 519.75,-389.85 513.75,-395.85 507.75,-395.85 507.75,-395.85 271.75,-395.85 271.75,-395.85 265.75,-395.85 259.75,-389.85 259.75,-383.85 259.75,-383.85 259.75,-234.3 259.75,-234.3 259.75,-228.3 265.75,-222.3 271.75,-222.3"/>
<text text-anchor="middle" x="319.5" y="-380.45" font-family="Sans-Serif" font-size="12.00" fill="#2d3436">Subnet web&#45;subnet</text>
</g>
<!-- 8509306440fd4d248b91f9c30e47e52b -->
<g id="node1" class="node">
<title>8509306440fd4d248b91f9c30e47e52b</title>
<image xlink:href="/Users/hamadkhawaja/Developer/diagram-ai/.venv/lib/python3.13/site-packages/resources/gcp/network/load-balancing.png" width="100.8px" height="100.8px" preserveAspectRatio="xMinYMin meet" x="339.35" y="-551.4"/>
<text text-anchor="middle" x="389.75" y="-433.75" font-family="Sans-Serif" font-size="13.00" fill="#2d3436">HTTP(S) Load Balancer</text>
</g>
<!-- 8bccbe63f717466f966b86d14d15c0ec -->
<g id="node2" class="node">
<title>8bccbe63f717466f966b86d14d15c0ec</title>
<image xlink:href="/Users/hamadkhawaja/Developer/diagram-ai/.venv/lib/python3.13/site-packages/resources/gcp/compute/compute-engine.png" width="100.8px" height="100.8px" preserveAspectRatio="xMinYMin meet" x="267.35" y="-349.1"/>
<text text-anchor="middle" x="317.75" y="-231.45" font-family="Sans-Serif" font-size="13.00" fill="#2d3436">App VM 1</text>
</g>
<!-- 8509306440fd4d248b91f9c30e47e52b&#45;&gt;8bccbe63f717466f966b86d14d15c0ec -->
<g id="edge1" class="edge">
<title>8509306440fd4d248b91f9c30e47e52b&#45;&gt;8bccbe63f717466f966b86d14d15c0ec</title>
<path fill="none" stroke="#7b8894" d="M353.75,-432.79C353.75,-432.79 353.75,-378.47 353.75,-378.47"/>
<polygon fill="#7b8894" stroke="#7b8894" points="357.25,-378.47 353.75,-368.47 350.25,-378.47 357.25,-378.47"/>
</g>
<!-- e8ddca47ec5b4177a43d8dfe8a3fd5fc -->
<g id="node3" class="node">
<title>e8ddca47ec5b4177a43d8dfe8a3fd5fc</title>
<image xlink:href="/Users/hamadkhawaja/Developer/diagram-ai/.venv/lib/python3.13/site-packages/resources/gcp/compute/compute-engine.png" width="100.8px" height="100.8px" preserveAspectRatio="xMinYMin meet" x="411.35" y="-349.1"/>
<text text-anchor="middle" x="461.75" y="-231.45" font-family="Sans-Serif" font-size="13.00" fill="#2d3436">App VM 2</text>
</g>
<!-- 8509306440fd4d248b91f9c30e47e52b&#45;&gt;e8ddca47ec5b4177a43d8dfe8a3fd5fc -->
<g id="edge2" class="edge">
<title>8509306440fd4d248b91f9c30e47e52b&#45;&gt;e8ddca47ec5b4177a43d8dfe8a3fd5fc</title>
<path fill="none" stroke="#7b8894" d="M425.75,-432.79C425.75,-432.79 425.75,-378.47 425.75,-378.47"/>
<polygon fill="#7b8894" stroke="#7b8894" points="429.25,-378.47 425.75,-368.47 422.25,-378.47 429.25,-378.47"/>
</g>
<!-- bbe88a1dc4a24e31af9aded9add26c97 -->
<g id="node4" class="node">
<title>bbe88a1dc4a24e31af9aded9add26c97</title>
<image xlink:href="/Users/hamadkhawaja/Developer/diagram-ai/.venv/lib/python3.13/site-packages/resources/gcp/database/sql.png" width="100.8px" height="100.8px" preserveAspectRatio="xMinYMin meet" x="267.35" y="-158.3"/>
<text text-anchor="middle" x="317.75" y="-40.65" font-family="Sans-Serif" font-size="13.00" fill="#2d3436">Cloud SQL</text>
</g>
<!-- 8bccbe63f717466f966b86d14d15c0ec&#45;&gt;bbe88a1dc4a24e31af9aded9add26c97 -->
<g id="edge3" class="edge">
<title>8bccbe63f717466f966b86d14d15c0ec&#45;&gt;bbe88a1dc4a24e31af9aded9add26c97</title>
<path fill="none" stroke="#7b8894" d="M292.55,-230.36C292.55,-230.36 292.55,-187.6 292.55,-187.6"/>
<polygon fill="#7b8894" stroke="#7b8894" points="296.05,-187.6 292.55,-177.6 289.05,-187.6 296.05,-187.6"/>
</g>
<!-- 2c162fa956ef4fa2b661ee1ecb6b3512 -->
<g id="node5" class="node">
<title>2c162fa956ef4fa2b661ee1ecb6b3512</title>
<image xlink:href="/Users/hamadkhawaja/Developer/diagram-ai/.venv/lib/python3.13/site-packages/resources/gcp/storage/storage.png" width="100.8px" height="100.8px" preserveAspectRatio="xMinYMin meet" x="411.35" y="-158.3"/>
<text text-anchor="middle" x="461.75" y="-40.65" font-family="Sans-Serif" font-size="13.00" fill="#2d3436">Cloud Storage</text>
</g>
<!-- 8bccbe63f717466f966b86d14d15c0ec&#45;&gt;2c162fa956ef4fa2b661ee1ecb6b3512 -->
<g id="edge4" class="edge">
<title>8bccbe63f717466f966b86d14d15c0ec&#45;&gt;2c162fa956ef4fa2b661ee1ecb6b3512</title>
<path fill="none" stroke="#7b8894" d="M342.95,-230.36C342.95,-210.72 342.95,-194.5 342.95,-194.5 342.95,-194.5 461.75,-194.5 461.75,-194.5 461.75,-194.5 461.75,-187.65 461.75,-187.65"/>
<polygon fill="#7b8894" stroke="#7b8894" points="465.25,-187.65 461.75,-177.65 458.25,-187.65 465.25,-187.65"/>
</g>
<!-- e8ddca47ec5b4177a43d8dfe8a3fd5fc&#45;&gt;bbe88a1dc4a24e31af9aded9add26c97 -->
<g id="edge5" class="edge">
<title>e8ddca47ec5b4177a43d8dfe8a3fd5fc&#45;&gt;bbe88a1dc4a24e31af9aded9add26c97</title>
<path fill="none" stroke="#7b8894" d="M436.55,-230.36C436.55,-219.9 436.55,-212.5 436.55,-212.5 436.55,-212.5 317.75,-212.5 317.75,-212.5 317.75,-212.5 317.75,-187.72 317.75,-187.72"/>
<polygon fill="#7b8894" stroke="#7b8894" points="321.25,-187.72 317.75,-177.72 314.25,-187.72 321.25,-187.72"/>
</g>
<!-- e8ddca47ec5b4177a43d8dfe8a3fd5fc&#45;&gt;2c162fa956ef4fa2b661ee1ecb6b3512 -->
<g id="edge6" class="edge">
<title>e8ddca47ec5b4177a43d8dfe8a3fd5fc&#45;&gt;2c162fa956ef4fa2b661ee1ecb6b3512</title>
<path fill="none" stroke="#7b8894" d="M486.95,-230.36C486.95,-230.36 486.95,-187.6 486.95,-187.6"/>
<polygon fill="#7b8894" stroke="#7b8894" points="490.45,-187.6 486.95,-177.6 483.45,-187.6 490.45,-187.6"/>
</g>
</g>
</svg>
