<?xml version="1.0" encoding="UTF-8" standalone="no"?>
<!DOCTYPE svg PUBLIC "-//W3C//DTD SVG 1.1//EN"
 "http://www.w3.org/Graphics/SVG/1.1/DTD/svg11.dtd">
<!-- Generated by graphviz version 12.2.1 (20241206.2353)
 -->
<!-- Title: Simple AWS Web Application Architecture Pages: 1 -->
<svg width="692pt" height="1062pt"
 viewBox="0.00 0.00 692.40 1061.70" xmlns="http://www.w3.org/2000/svg" xmlns:xlink="http://www.w3.org/1999/xlink">
<g id="graph0" class="graph" transform="scale(1 1) rotate(0) translate(144 917.7)">
<title>Simple AWS Web Application Architecture</title>
<polygon fill="white" stroke="none" points="-144,144 -144,-917.7 548.4,-917.7 548.4,144 -144,144"/>
<text text-anchor="middle" x="202.2" y="-6" font-family="Sans-Serif" font-size="20.00" fill="#2d3436">Simple AWS Web Application Architecture</text>
<g id="clust1" class="cluster">
<title>cluster_VPC</title>
<path fill="#e5f5fd" stroke="#aeb6be" d="M20,-37C20,-37 264,-37 264,-37 270,-37 276,-43 276,-49 276,-49 276,-616.9 276,-616.9 276,-622.9 270,-628.9 264,-628.9 264,-628.9 20,-628.9 20,-628.9 14,-628.9 8,-622.9 8,-616.9 8,-616.9 8,-49 8,-49 8,-43 14,-37 20,-37"/>
<text text-anchor="middle" x="28.75" y="-613.5" font-family="Sans-Serif" font-size="12.00" fill="#2d3436">VPC</text>
</g>
<g id="clust2" class="cluster">
<title>cluster_Public Subnet</title>
<path fill="#ebf3e7" stroke="#aeb6be" d="M96,-426.6C96,-426.6 188,-426.6 188,-426.6 194,-426.6 200,-432.6 200,-438.6 200,-438.6 200,-588.15 200,-588.15 200,-594.15 194,-600.15 188,-600.15 188,-600.15 96,-600.15 96,-600.15 90,-600.15 84,-594.15 84,-588.15 84,-588.15 84,-438.6 84,-438.6 84,-432.6 90,-426.6 96,-426.6"/>
<text text-anchor="middle" x="129.5" y="-584.75" font-family="Sans-Serif" font-size="12.00" fill="#2d3436">Public Subnet</text>
</g>
<g id="clust3" class="cluster">
<title>cluster_Private Subnet</title>
<path fill="#ebf3e7" stroke="#aeb6be" d="M164,-45C164,-45 256,-45 256,-45 262,-45 268,-51 268,-57 268,-57 268,-397.35 268,-397.35 268,-403.35 262,-409.35 256,-409.35 256,-409.35 164,-409.35 164,-409.35 158,-409.35 152,-403.35 152,-397.35 152,-397.35 152,-57 152,-57 152,-51 158,-45 164,-45"/>
<text text-anchor="middle" x="199.38" y="-393.95" font-family="Sans-Serif" font-size="12.00" fill="#2d3436">Private Subnet</text>
</g>
<!-- 431a66c4625b4868b023ba8be05b816d -->
<g id="node1" class="node">
<title>431a66c4625b4868b023ba8be05b816d</title>
<image xlink:href="/Users/hamadkhawaja/Developer/diagram-ai/.venv/lib/python3.13/site-packages/resources/aws/network/route-53.png" width="100.8px" height="100.8px" preserveAspectRatio="xMinYMin meet" x="91.6" y="-755.7"/>
<text text-anchor="middle" x="142" y="-638.05" font-family="Sans-Serif" font-size="13.00" fill="#2d3436">Route 53</text>
</g>
<!-- 24380471e56a405c9b2f484d725bb4b7 -->
<g id="node2" class="node">
<title>24380471e56a405c9b2f484d725bb4b7</title>
<image xlink:href="/Users/hamadkhawaja/Developer/diagram-ai/.venv/lib/python3.13/site-packages/resources/aws/network/elb-application-load-balancer.png" width="100.8px" height="100.8px" preserveAspectRatio="xMinYMin meet" x="91.6" y="-553.4"/>
<text text-anchor="middle" x="142" y="-435.75" font-family="Sans-Serif" font-size="13.00" fill="#2d3436">Application Load Balancer</text>
</g>
<!-- 431a66c4625b4868b023ba8be05b816d&#45;&gt;24380471e56a405c9b2f484d725bb4b7 -->
<g id="edge4" class="edge">
<title>431a66c4625b4868b023ba8be05b816d&#45;&gt;24380471e56a405c9b2f484d725bb4b7</title>
<path fill="none" stroke="#7b8894" d="M142,-637.09C142,-637.09 142,-582.77 142,-582.77"/>
<polygon fill="#7b8894" stroke="#7b8894" points="145.5,-582.77 142,-572.77 138.5,-582.77 145.5,-582.77"/>
</g>
<!-- 1bd7a99af31a42b982bfcccdc499d501 -->
<g id="node3" class="node">
<title>1bd7a99af31a42b982bfcccdc499d501</title>
<image xlink:href="/Users/hamadkhawaja/Developer/diagram-ai/.venv/lib/python3.13/site-packages/resources/aws/network/internet-gateway.png" width="100.8px" height="100.8px" preserveAspectRatio="xMinYMin meet" x="15.6" y="-362.6"/>
<text text-anchor="middle" x="66" y="-244.95" font-family="Sans-Serif" font-size="13.00" fill="#2d3436">Internet Gateway</text>
</g>
<!-- 24380471e56a405c9b2f484d725bb4b7&#45;&gt;1bd7a99af31a42b982bfcccdc499d501 -->
<g id="edge1" class="edge">
<title>24380471e56a405c9b2f484d725bb4b7&#45;&gt;1bd7a99af31a42b982bfcccdc499d501</title>
<path fill="none" stroke="#7b8894" d="M104,-434.66C104,-434.66 104,-391.9 104,-391.9"/>
<polygon fill="#7b8894" stroke="#7b8894" points="107.5,-391.9 104,-381.9 100.5,-391.9 107.5,-391.9"/>
</g>
<!-- 73678999736d4d7db2f6c299960362a2 -->
<g id="node4" class="node">
<title>73678999736d4d7db2f6c299960362a2</title>
<image xlink:href="/Users/hamadkhawaja/Developer/diagram-ai/.venv/lib/python3.13/site-packages/resources/aws/compute/ec2.png" width="100.8px" height="100.8px" preserveAspectRatio="xMinYMin meet" x="159.6" y="-362.6"/>
<text text-anchor="middle" x="210" y="-244.95" font-family="Sans-Serif" font-size="13.00" fill="#2d3436">Web App EC2</text>
</g>
<!-- 24380471e56a405c9b2f484d725bb4b7&#45;&gt;73678999736d4d7db2f6c299960362a2 -->
<g id="edge3" class="edge">
<title>24380471e56a405c9b2f484d725bb4b7&#45;&gt;73678999736d4d7db2f6c299960362a2</title>
<path fill="none" stroke="#7b8894" d="M176,-434.66C176,-434.66 176,-391.9 176,-391.9"/>
<polygon fill="#7b8894" stroke="#7b8894" points="179.5,-391.9 176,-381.9 172.5,-391.9 179.5,-391.9"/>
</g>
<!-- 70de7c973d51412d8335a18110a1156d -->
<g id="node5" class="node">
<title>70de7c973d51412d8335a18110a1156d</title>
<image xlink:href="/Users/hamadkhawaja/Developer/diagram-ai/.venv/lib/python3.13/site-packages/resources/aws/database/rds.png" width="100.8px" height="100.8px" preserveAspectRatio="xMinYMin meet" x="159.6" y="-171.8"/>
<text text-anchor="middle" x="210" y="-54.15" font-family="Sans-Serif" font-size="13.00" fill="#2d3436">RDS MySQL</text>
</g>
<!-- 73678999736d4d7db2f6c299960362a2&#45;&gt;70de7c973d51412d8335a18110a1156d -->
<g id="edge2" class="edge">
<title>73678999736d4d7db2f6c299960362a2&#45;&gt;70de7c973d51412d8335a18110a1156d</title>
<path fill="none" stroke="#7b8894" d="M210,-243.86C210,-243.86 210,-201.1 210,-201.1"/>
<polygon fill="#7b8894" stroke="#7b8894" points="213.5,-201.1 210,-191.1 206.5,-201.1 213.5,-201.1"/>
</g>
<!-- d94c18ddab034194a24f1f4a13bf9dca -->
<g id="node6" class="node">
<title>d94c18ddab034194a24f1f4a13bf9dca</title>
<image xlink:href="/Users/hamadkhawaja/Developer/diagram-ai/.venv/lib/python3.13/site-packages/resources/aws/storage/simple-storage-service-s3.png" width="100.8px" height="100.8px" preserveAspectRatio="xMinYMin meet" x="303.6" y="-171.8"/>
<text text-anchor="middle" x="354" y="-54.15" font-family="Sans-Serif" font-size="13.00" fill="#2d3436">S3 Static Assets</text>
</g>
<!-- 73678999736d4d7db2f6c299960362a2&#45;&gt;d94c18ddab034194a24f1f4a13bf9dca -->
<g id="edge5" class="edge">
<title>73678999736d4d7db2f6c299960362a2&#45;&gt;d94c18ddab034194a24f1f4a13bf9dca</title>
<path fill="none" stroke="#7b8894" d="M260.36,-312C301.89,-312 354,-312 354,-312 354,-312 354,-201.19 354,-201.19"/>
<polygon fill="#7b8894" stroke="#7b8894" points="357.5,-201.19 354,-191.19 350.5,-201.19 357.5,-201.19"/>
</g>
</g>
</svg>
