<?xml version="1.0" encoding="UTF-8" standalone="no"?>
<!DOCTYPE svg PUBLIC "-//W3C//DTD SVG 1.1//EN"
 "http://www.w3.org/Graphics/SVG/1.1/DTD/svg11.dtd">
<!-- Generated by graphviz version 12.2.1 (20241206.2353)
 -->
<!-- Title: This diagram shows a single AWS VPC containing two EC2 instances for compute workloads. Pages: 1 -->
<svg width="924pt" height="692pt"
 viewBox="0.00 0.00 924.25 692.10" xmlns="http://www.w3.org/2000/svg" xmlns:xlink="http://www.w3.org/1999/xlink">
<g id="graph0" class="graph" transform="scale(1 1) rotate(0) translate(144 548.1)">
<title>This diagram shows a single AWS VPC containing two EC2 instances for compute workloads.</title>
<polygon fill="white" stroke="none" points="-144,144 -144,-548.1 780.25,-548.1 780.25,144 -144,144"/>
<text text-anchor="middle" x="318.12" y="-5.5" font-family="Sans-Serif" font-size="15.00" fill="#2d3436">This diagram shows a single AWS VPC containing two EC2 instances for compute workloads.</text>
<g id="clust1" class="cluster">
<title>cluster_VPC</title>
<path fill="#e5f5fd" stroke="#aeb6be" d="M272.12,-31.75C272.12,-31.75 364.12,-31.75 364.12,-31.75 370.12,-31.75 376.12,-37.75 376.12,-43.75 376.12,-43.75 376.12,-384.1 376.12,-384.1 376.12,-390.1 370.12,-396.1 364.12,-396.1 364.12,-396.1 272.12,-396.1 272.12,-396.1 266.12,-396.1 260.12,-390.1 260.12,-384.1 260.12,-384.1 260.12,-43.75 260.12,-43.75 260.12,-37.75 266.12,-31.75 272.12,-31.75"/>
<text text-anchor="middle" x="280.88" y="-380.7" font-family="Sans-Serif" font-size="12.00" fill="#2d3436">VPC</text>
</g>
<!-- fe7e70fa48cb47ad913ce2e242a39981 -->
<g id="node1" class="node">
<title>fe7e70fa48cb47ad913ce2e242a39981</title>
<image xlink:href="/Users/hamadkhawaja/Developer/diagram-ai/.venv/lib/python3.13/site-packages/resources/aws/compute/ec2.png" width="100.8px" height="100.8px" preserveAspectRatio="xMinYMin meet" x="267.725" y="-349.35"/>
<text text-anchor="middle" x="318.12" y="-231.7" font-family="Sans-Serif" font-size="13.00" fill="#2d3436">EC2 Instance 1</text>
</g>
<!-- 3e95c539f4dc48429d23eeabf6148848 -->
<g id="node2" class="node">
<title>3e95c539f4dc48429d23eeabf6148848</title>
<image xlink:href="/Users/hamadkhawaja/Developer/diagram-ai/.venv/lib/python3.13/site-packages/resources/aws/compute/ec2.png" width="100.8px" height="100.8px" preserveAspectRatio="xMinYMin meet" x="267.725" y="-158.55"/>
<text text-anchor="middle" x="318.12" y="-40.9" font-family="Sans-Serif" font-size="13.00" fill="#2d3436">EC2 Instance 2</text>
</g>
<!-- fe7e70fa48cb47ad913ce2e242a39981&#45;&gt;3e95c539f4dc48429d23eeabf6148848 -->
<g id="edge1" class="edge">
<title>fe7e70fa48cb47ad913ce2e242a39981&#45;&gt;3e95c539f4dc48429d23eeabf6148848</title>
<path fill="none" stroke="#7b8894" d="M318.12,-230.61C318.12,-212.96 318.12,-193.97 318.12,-176.34"/>
</g>
</g>
</svg>
