<?xml version="1.0" encoding="UTF-8" standalone="no"?>
<!DOCTYPE svg PUBLIC "-//W3C//DTD SVG 1.1//EN"
 "http://www.w3.org/Graphics/SVG/1.1/DTD/svg11.dtd">
<!-- Generated by graphviz version 12.2.1 (20241206.2353)
 -->
<!-- Title: This diagram shows a single AWS VPC containing two EC2 instances for basic compute workloads. Pages: 1 -->
<svg width="963pt" height="692pt"
 viewBox="0.00 0.00 963.25 692.10" xmlns="http://www.w3.org/2000/svg" xmlns:xlink="http://www.w3.org/1999/xlink">
<g id="graph0" class="graph" transform="scale(1 1) rotate(0) translate(144 548.1)">
<title>This diagram shows a single AWS VPC containing two EC2 instances for basic compute workloads.</title>
<polygon fill="white" stroke="none" points="-144,144 -144,-548.1 819.25,-548.1 819.25,144 -144,144"/>
<text text-anchor="middle" x="337.62" y="-5.5" font-family="Sans-Serif" font-size="15.00" fill="#2d3436">This diagram shows a single AWS VPC containing two EC2 instances for basic compute workloads.</text>
<g id="clust1" class="cluster">
<title>cluster_VPC</title>
<path fill="#e5f5fd" stroke="#aeb6be" d="M291.62,-31.75C291.62,-31.75 383.62,-31.75 383.62,-31.75 389.62,-31.75 395.62,-37.75 395.62,-43.75 395.62,-43.75 395.62,-384.1 395.62,-384.1 395.62,-390.1 389.62,-396.1 383.62,-396.1 383.62,-396.1 291.62,-396.1 291.62,-396.1 285.62,-396.1 279.62,-390.1 279.62,-384.1 279.62,-384.1 279.62,-43.75 279.62,-43.75 279.62,-37.75 285.62,-31.75 291.62,-31.75"/>
<text text-anchor="middle" x="300.38" y="-380.7" font-family="Sans-Serif" font-size="12.00" fill="#2d3436">VPC</text>
</g>
<!-- 0b7d506a20c845c7b84302ab4b96e781 -->
<g id="node1" class="node">
<title>0b7d506a20c845c7b84302ab4b96e781</title>
<image xlink:href="/Users/hamadkhawaja/Developer/diagram-ai/.venv/lib/python3.13/site-packages/resources/aws/compute/ec2.png" width="100.8px" height="100.8px" preserveAspectRatio="xMinYMin meet" x="287.225" y="-349.35"/>
<text text-anchor="middle" x="337.62" y="-231.7" font-family="Sans-Serif" font-size="13.00" fill="#2d3436">EC2 Instance 1</text>
</g>
<!-- 86cc7dd25da0425a980a4a94efdf4a7d -->
<g id="node2" class="node">
<title>86cc7dd25da0425a980a4a94efdf4a7d</title>
<image xlink:href="/Users/hamadkhawaja/Developer/diagram-ai/.venv/lib/python3.13/site-packages/resources/aws/compute/ec2.png" width="100.8px" height="100.8px" preserveAspectRatio="xMinYMin meet" x="287.225" y="-158.55"/>
<text text-anchor="middle" x="337.62" y="-40.9" font-family="Sans-Serif" font-size="13.00" fill="#2d3436">EC2 Instance 2</text>
</g>
<!-- 0b7d506a20c845c7b84302ab4b96e781&#45;&gt;86cc7dd25da0425a980a4a94efdf4a7d -->
<g id="edge1" class="edge">
<title>0b7d506a20c845c7b84302ab4b96e781&#45;&gt;86cc7dd25da0425a980a4a94efdf4a7d</title>
<path fill="none" stroke="#7b8894" d="M337.62,-230.61C337.62,-212.96 337.62,-193.97 337.62,-176.34"/>
</g>
</g>
</svg>
