<?xml version="1.0" encoding="UTF-8" standalone="no"?>
<!DOCTYPE svg PUBLIC "-//W3C//DTD SVG 1.1//EN"
 "http://www.w3.org/Graphics/SVG/1.1/DTD/svg11.dtd">
<!-- Generated by graphviz version 12.2.1 (20241206.2353)
 -->
<!-- Title: VPC with API Gateway and EC2 Instance Pages: 1 -->
<svg width="580pt" height="700pt"
 viewBox="0.00 0.00 580.00 700.10" xmlns="http://www.w3.org/2000/svg" xmlns:xlink="http://www.w3.org/1999/xlink">
<g id="graph0" class="graph" transform="scale(1 1) rotate(0) translate(144 556.1)">
<title>VPC with API Gateway and EC2 Instance</title>
<polygon fill="white" stroke="none" points="-144,144 -144,-556.1 436,-556.1 436,144 -144,144"/>
<text text-anchor="middle" x="146" y="-5.5" font-family="Sans-Serif" font-size="15.00" fill="#2d3436">VPC with API Gateway and EC2 Instance</text>
<g id="clust1" class="cluster">
<title>cluster_VPC</title>
<path fill="#e5f5fd" stroke="#aeb6be" d="M92,-31.75C92,-31.75 200,-31.75 200,-31.75 206,-31.75 212,-37.75 212,-43.75 212,-43.75 212,-392.1 212,-392.1 212,-398.1 206,-404.1 200,-404.1 200,-404.1 92,-404.1 92,-404.1 86,-404.1 80,-398.1 80,-392.1 80,-392.1 80,-43.75 80,-43.75 80,-37.75 86,-31.75 92,-31.75"/>
<text text-anchor="middle" x="100.75" y="-388.7" font-family="Sans-Serif" font-size="12.00" fill="#2d3436">VPC</text>
</g>
<g id="clust2" class="cluster">
<title>cluster_Public Subnet</title>
<path fill="#ebf3e7" stroke="#aeb6be" d="M100,-39.75C100,-39.75 192,-39.75 192,-39.75 198,-39.75 204,-45.75 204,-51.75 204,-51.75 204,-201.3 204,-201.3 204,-207.3 198,-213.3 192,-213.3 192,-213.3 100,-213.3 100,-213.3 94,-213.3 88,-207.3 88,-201.3 88,-201.3 88,-51.75 88,-51.75 88,-45.75 94,-39.75 100,-39.75"/>
<text text-anchor="middle" x="133.5" y="-197.9" font-family="Sans-Serif" font-size="12.00" fill="#2d3436">Public Subnet</text>
</g>
<!-- e7a76e8548ef43728e97117d4e023cfa -->
<g id="node1" class="node">
<title>e7a76e8548ef43728e97117d4e023cfa</title>
<image xlink:href="/Users/hamadkhawaja/Developer/diagram-ai/.venv/lib/python3.13/site-packages/resources/aws/network/api-gateway.png" width="100.8px" height="100.8px" preserveAspectRatio="xMinYMin meet" x="95.6" y="-357.35"/>
<text text-anchor="middle" x="146" y="-239.7" font-family="Sans-Serif" font-size="13.00" fill="#2d3436">API Gateway</text>
</g>
<!-- 1a256698f1884688b84cb1ffc9befeb4 -->
<g id="node2" class="node">
<title>1a256698f1884688b84cb1ffc9befeb4</title>
<image xlink:href="/Users/hamadkhawaja/Developer/diagram-ai/.venv/lib/python3.13/site-packages/resources/aws/compute/ec2.png" width="100.8px" height="100.8px" preserveAspectRatio="xMinYMin meet" x="95.6" y="-166.55"/>
<text text-anchor="middle" x="146" y="-48.9" font-family="Sans-Serif" font-size="13.00" fill="#2d3436">EC2 Instance</text>
</g>
<!-- e7a76e8548ef43728e97117d4e023cfa&#45;&gt;1a256698f1884688b84cb1ffc9befeb4 -->
<g id="edge1" class="edge">
<title>e7a76e8548ef43728e97117d4e023cfa&#45;&gt;1a256698f1884688b84cb1ffc9befeb4</title>
<path fill="none" stroke="#7b8894" d="M146,-238.61C146,-238.61 146,-195.85 146,-195.85"/>
<polygon fill="#7b8894" stroke="#7b8894" points="149.5,-195.85 146,-185.85 142.5,-195.85 149.5,-195.85"/>
</g>
</g>
</svg>
