<?xml version="1.0" encoding="UTF-8" standalone="no"?>
<!DOCTYPE svg PUBLIC "-//W3C//DTD SVG 1.1//EN"
 "http://www.w3.org/Graphics/SVG/1.1/DTD/svg11.dtd">
<!-- Generated by graphviz version 12.2.1 (20241206.2353)
 -->
<!-- Title: AWS VPC with ECS and Fargate
This diagram shows an AWS VPC with public/private subnets, ECS cluster, and Fargate tasks for containerized workloads. Pages: 1 -->
<svg width="1116pt" height="1609pt"
 viewBox="0.00 0.00 1116.25 1609.10" xmlns="http://www.w3.org/2000/svg" xmlns:xlink="http://www.w3.org/1999/xlink">
<g id="graph0" class="graph" transform="scale(1 1) rotate(0) translate(144 1465.1)">
<title>AWS VPC with ECS and Fargate
This diagram shows an AWS VPC with public/private subnets, ECS cluster, and Fargate tasks for containerized workloads.</title>
<polygon fill="white" stroke="none" points="-144,144 -144,-1465.1 972.25,-1465.1 972.25,144 -144,144"/>
<text text-anchor="middle" x="414.12" y="-21.25" font-family="Sans-Serif" font-size="15.00" fill="#2d3436">AWS VPC with ECS and Fargate</text>
<text text-anchor="middle" x="414.12" y="-5.5" font-family="Sans-Serif" font-size="15.00" fill="#2d3436">This diagram shows an AWS VPC with public/private subnets, ECS cluster, and Fargate tasks for containerized workloads.</text>
<g id="clust1" class="cluster">
<title>cluster_Public Subnet</title>
<path fill="#e5f5fd" stroke="#aeb6be" d="M368.12,-794.7C368.12,-794.7 460.12,-794.7 460.12,-794.7 466.12,-794.7 472.12,-800.7 472.12,-806.7 472.12,-806.7 472.12,-956.25 472.12,-956.25 472.12,-962.25 466.12,-968.25 460.12,-968.25 460.12,-968.25 368.12,-968.25 368.12,-968.25 362.12,-968.25 356.12,-962.25 356.12,-956.25 356.12,-956.25 356.12,-806.7 356.12,-806.7 356.12,-800.7 362.12,-794.7 368.12,-794.7"/>
<text text-anchor="middle" x="401.62" y="-952.85" font-family="Sans-Serif" font-size="12.00" fill="#2d3436">Public Subnet</text>
</g>
<g id="clust2" class="cluster">
<title>cluster_Private Subnet</title>
<path fill="#e5f5fd" stroke="#aeb6be" d="M360.12,-214.3C360.12,-214.3 468.12,-214.3 468.12,-214.3 474.12,-214.3 480.12,-220.3 480.12,-226.3 480.12,-226.3 480.12,-765.45 480.12,-765.45 480.12,-771.45 474.12,-777.45 468.12,-777.45 468.12,-777.45 360.12,-777.45 360.12,-777.45 354.12,-777.45 348.12,-771.45 348.12,-765.45 348.12,-765.45 348.12,-226.3 348.12,-226.3 348.12,-220.3 354.12,-214.3 360.12,-214.3"/>
<text text-anchor="middle" x="395.5" y="-762.05" font-family="Sans-Serif" font-size="12.00" fill="#2d3436">Private Subnet</text>
</g>
<g id="clust3" class="cluster">
<title>cluster_ECS Cluster</title>
<path fill="#ebf3e7" stroke="#aeb6be" d="M368.12,-222.3C368.12,-222.3 460.12,-222.3 460.12,-222.3 466.12,-222.3 472.12,-228.3 472.12,-234.3 472.12,-234.3 472.12,-574.65 472.12,-574.65 472.12,-580.65 466.12,-586.65 460.12,-586.65 460.12,-586.65 368.12,-586.65 368.12,-586.65 362.12,-586.65 356.12,-580.65 356.12,-574.65 356.12,-574.65 356.12,-234.3 356.12,-234.3 356.12,-228.3 362.12,-222.3 368.12,-222.3"/>
<text text-anchor="middle" x="397.5" y="-571.25" font-family="Sans-Serif" font-size="12.00" fill="#2d3436">ECS Cluster</text>
</g>
<!-- fc4c1ebd428a4c2498dbeb89afb80991 -->
<g id="node1" class="node">
<title>fc4c1ebd428a4c2498dbeb89afb80991</title>
<image xlink:href="/Users/hamadkhawaja/Developer/diagram-ai/.venv/lib/python3.13/site-packages/resources/aws/network/vpc.png" width="100.8px" height="100.8px" preserveAspectRatio="xMinYMin meet" x="363.725" y="-1303.1"/>
<text text-anchor="middle" x="414.12" y="-1185.45" font-family="Sans-Serif" font-size="13.00" fill="#2d3436">VPC</text>
</g>
<!-- d1a0e61066be4af1ad501d69ce740942 -->
<g id="node2" class="node">
<title>d1a0e61066be4af1ad501d69ce740942</title>
<image xlink:href="/Users/hamadkhawaja/Developer/diagram-ai/.venv/lib/python3.13/site-packages/resources/aws/network/internet-gateway.png" width="100.8px" height="100.8px" preserveAspectRatio="xMinYMin meet" x="363.725" y="-1112.3"/>
<text text-anchor="middle" x="414.12" y="-994.65" font-family="Sans-Serif" font-size="13.00" fill="#2d3436">Internet Gateway</text>
</g>
<!-- fc4c1ebd428a4c2498dbeb89afb80991&#45;&gt;d1a0e61066be4af1ad501d69ce740942 -->
<g id="edge1" class="edge">
<title>fc4c1ebd428a4c2498dbeb89afb80991&#45;&gt;d1a0e61066be4af1ad501d69ce740942</title>
<path fill="none" stroke="#7b8894" d="M414.12,-1184.36C414.12,-1184.36 414.12,-1141.6 414.12,-1141.6"/>
<polygon fill="#7b8894" stroke="#7b8894" points="417.63,-1141.6 414.13,-1131.6 410.63,-1141.6 417.63,-1141.6"/>
</g>
<!-- b85e0af556b145b1a88984f50e6ab102 -->
<g id="node3" class="node">
<title>b85e0af556b145b1a88984f50e6ab102</title>
<image xlink:href="/Users/hamadkhawaja/Developer/diagram-ai/.venv/lib/python3.13/site-packages/resources/aws/network/public-subnet.png" width="100.8px" height="100.8px" preserveAspectRatio="xMinYMin meet" x="363.725" y="-921.5"/>
<text text-anchor="middle" x="414.12" y="-803.85" font-family="Sans-Serif" font-size="13.00" fill="#2d3436">Public Subnet</text>
</g>
<!-- d1a0e61066be4af1ad501d69ce740942&#45;&gt;b85e0af556b145b1a88984f50e6ab102 -->
<g id="edge3" class="edge">
<title>d1a0e61066be4af1ad501d69ce740942&#45;&gt;b85e0af556b145b1a88984f50e6ab102</title>
<path fill="none" stroke="#7b8894" d="M414.12,-993.56C414.12,-993.56 414.12,-950.8 414.12,-950.8"/>
<polygon fill="#7b8894" stroke="#7b8894" points="417.63,-950.8 414.13,-940.8 410.63,-950.8 417.63,-950.8"/>
</g>
<!-- acb8b3c0ec104d3d82b0b43b2968d75f -->
<g id="node6" class="node">
<title>acb8b3c0ec104d3d82b0b43b2968d75f</title>
<image xlink:href="/Users/hamadkhawaja/Developer/diagram-ai/.venv/lib/python3.13/site-packages/resources/aws/network/private-subnet.png" width="100.8px" height="100.8px" preserveAspectRatio="xMinYMin meet" x="363.725" y="-730.7"/>
<text text-anchor="middle" x="414.12" y="-613.05" font-family="Sans-Serif" font-size="13.00" fill="#2d3436">Private Subnet</text>
</g>
<!-- b85e0af556b145b1a88984f50e6ab102&#45;&gt;acb8b3c0ec104d3d82b0b43b2968d75f -->
<g id="edge4" class="edge">
<title>b85e0af556b145b1a88984f50e6ab102&#45;&gt;acb8b3c0ec104d3d82b0b43b2968d75f</title>
<path fill="none" stroke="#7b8894" d="M414.12,-802.76C414.12,-802.76 414.12,-760 414.12,-760"/>
<polygon fill="#7b8894" stroke="#7b8894" points="417.63,-760 414.13,-750 410.63,-760 417.63,-760"/>
</g>
<!-- bca8933cad83409da5228ecbb2bfd2dc -->
<g id="node4" class="node">
<title>bca8933cad83409da5228ecbb2bfd2dc</title>
<image xlink:href="/Users/hamadkhawaja/Developer/diagram-ai/.venv/lib/python3.13/site-packages/resources/aws/compute/elastic-container-service.png" width="100.8px" height="100.8px" preserveAspectRatio="xMinYMin meet" x="363.725" y="-539.9"/>
<text text-anchor="middle" x="414.12" y="-422.25" font-family="Sans-Serif" font-size="13.00" fill="#2d3436">ECS Cluster</text>
</g>
<!-- 0b855446f56947dca75ff490ff155668 -->
<g id="node5" class="node">
<title>0b855446f56947dca75ff490ff155668</title>
<image xlink:href="/Users/hamadkhawaja/Developer/diagram-ai/.venv/lib/python3.13/site-packages/resources/aws/compute/fargate.png" width="100.8px" height="100.8px" preserveAspectRatio="xMinYMin meet" x="363.725" y="-349.1"/>
<text text-anchor="middle" x="414.12" y="-231.45" font-family="Sans-Serif" font-size="13.00" fill="#2d3436">Fargate Tasks</text>
</g>
<!-- bca8933cad83409da5228ecbb2bfd2dc&#45;&gt;0b855446f56947dca75ff490ff155668 -->
<g id="edge2" class="edge">
<title>bca8933cad83409da5228ecbb2bfd2dc&#45;&gt;0b855446f56947dca75ff490ff155668</title>
<path fill="none" stroke="#7b8894" d="M414.12,-421.16C414.12,-421.16 414.12,-378.4 414.12,-378.4"/>
<polygon fill="#7b8894" stroke="#7b8894" points="417.63,-378.4 414.13,-368.4 410.63,-378.4 417.63,-378.4"/>
</g>
<!-- 1e55b9a9180e44b5ac11da0a42367c30 -->
<g id="node7" class="node">
<title>1e55b9a9180e44b5ac11da0a42367c30</title>
<image xlink:href="/Users/hamadkhawaja/Developer/diagram-ai/.venv/lib/python3.13/site-packages/resources/aws/security/identity-and-access-management-iam-role.png" width="100.8px" height="100.8px" preserveAspectRatio="xMinYMin meet" x="363.725" y="-158.3"/>
<text text-anchor="middle" x="414.12" y="-40.65" font-family="Sans-Serif" font-size="13.00" fill="#2d3436">ECS Task Role</text>
</g>
<!-- 0b855446f56947dca75ff490ff155668&#45;&gt;1e55b9a9180e44b5ac11da0a42367c30 -->
<g id="edge6" class="edge">
<title>0b855446f56947dca75ff490ff155668&#45;&gt;1e55b9a9180e44b5ac11da0a42367c30</title>
<path fill="none" stroke="#7b8894" d="M414.12,-218.84C414.12,-218.84 414.12,-176.09 414.12,-176.09"/>
<polygon fill="#7b8894" stroke="#7b8894" points="410.63,-218.84 414.13,-228.84 417.63,-218.84 410.63,-218.84"/>
</g>
<!-- acb8b3c0ec104d3d82b0b43b2968d75f&#45;&gt;bca8933cad83409da5228ecbb2bfd2dc -->
<g id="edge5" class="edge">
<title>acb8b3c0ec104d3d82b0b43b2968d75f&#45;&gt;bca8933cad83409da5228ecbb2bfd2dc</title>
<path fill="none" stroke="#7b8894" d="M414.12,-611.96C414.12,-611.96 414.12,-569.2 414.12,-569.2"/>
<polygon fill="#7b8894" stroke="#7b8894" points="417.63,-569.2 414.13,-559.2 410.63,-569.2 417.63,-569.2"/>
</g>
</g>
</svg>
